<?xml version="1.0" encoding="UTF-8" standalone="no"?>
<!-- Created with Inkscape (http://www.inkscape.org/) -->

<svg
   xmlns:dc="http://purl.org/dc/elements/1.1/"
   xmlns:cc="http://creativecommons.org/ns#"
   xmlns:rdf="http://www.w3.org/1999/02/22-rdf-syntax-ns#"
   xmlns:svg="http://www.w3.org/2000/svg"
   xmlns="http://www.w3.org/2000/svg"
   xmlns:sodipodi="http://sodipodi.sourceforge.net/DTD/sodipodi-0.dtd"
   xmlns:inkscape="http://www.inkscape.org/namespaces/inkscape"
   width="297mm"
   height="50.999031mm"
   viewBox="0 0 297 50.999031"
   version="1.1"
   id="svg22684"
   inkscape:version="0.92.4 (unknown)"
   sodipodi:docname="schild_iterated_construction.svg">
  <defs
     id="defs22678" />
  <sodipodi:namedview
     id="base"
     pagecolor="#ffffff"
     bordercolor="#666666"
     borderopacity="1.0"
     inkscape:pageopacity="0.0"
     inkscape:pageshadow="2"
     inkscape:zoom="1"
     inkscape:cx="397.28621"
     inkscape:cy="-13.325681"
     inkscape:document-units="mm"
     inkscape:current-layer="layer1"
     showgrid="false"
     fit-margin-top="0"
     fit-margin-left="0"
     fit-margin-right="0"
     fit-margin-bottom="0"
     inkscape:window-width="1920"
     inkscape:window-height="1049"
     inkscape:window-x="1920"
     inkscape:window-y="0"
     inkscape:window-maximized="1" />
  <metadata
     id="metadata22681">
    <rdf:RDF>
      <cc:Work
         rdf:about="">
        <dc:format>image/svg+xml</dc:format>
        <dc:type
           rdf:resource="http://purl.org/dc/dcmitype/StillImage" />
        <dc:title></dc:title>
      </cc:Work>
    </rdf:RDF>
  </metadata>
  <g
     inkscape:label="Layer 1"
     inkscape:groupmode="layer"
     id="layer1"
     transform="translate(0,-83.110104)">
    <path
       inkscape:connector-curvature="0"
       id="path21655"
       style="fill:#041e06;fill-opacity:1;fill-rule:nonzero;stroke:none;stroke-width:0.10603728"
       d="m 284.71962,120.11382 c 0.87693,0.4742 1.20246,1.5702 0.72847,2.44797 -0.47399,0.87767 -1.56934,1.20491 -2.44627,0.73017 -0.87693,-0.47419 -1.20246,-1.57104 -0.72848,-2.44829 0.47398,-0.87778 1.56829,-1.20458 2.44628,-0.72985 z m -46.60921,-17.27525 c -0.92889,-0.35988 -1.39122,-1.40573 -1.03174,-2.3361 0.35946,-0.930689 1.40499,-1.393336 2.33387,-1.033437 0.92995,0.359996 1.39228,1.406257 1.03281,2.336527 -0.35946,0.93079 -1.40499,1.39344 -2.33494,1.03301 z m 0.81436,-2.10579 6.66498,2.6263 6.01443,2.4397 5.87446,2.49644 5.71435,2.54236 5.53727,2.58178 5.34003,2.61117 5.12266,2.63269 4.88197,2.64182 -0.42946,0.79486 -4.87771,-2.6397 0.009,0.004 -5.11524,-2.62813 0.009,0.004 -5.33155,-2.60746 0.008,0.003 -5.52985,-2.57766 0.008,0.003 -5.708,-2.53949 0.008,0.002 -5.86704,-2.49272 0.007,0.003 -6.00807,-2.43716 0.008,0.003 -6.66179,-2.62544 0.32554,-0.84247"
       sodipodi:nodetypes="cccccccccccccccccccccccccccccccccccc" />
    <path
       inkscape:connector-curvature="0"
       id="path21657"
       style="fill:none;stroke:#040606;stroke-width:0.86358321;stroke-linecap:butt;stroke-linejoin:miter;stroke-miterlimit:8;stroke-dasharray:none;stroke-opacity:1"
       d="M 2.0910551,121.97276 H 296.99999" />
    <path
       inkscape:connector-curvature="0"
       id="path21659"
       style="fill:#344ea8;fill-opacity:1;fill-rule:nonzero;stroke:none;stroke-width:0.10603728"
       d="m 45.654347,126.27639 h -0.670155 l -0.05196,0.22819 c -0.04878,0.29574 -0.120882,0.5795 -0.214195,0.85126 -0.09331,0.27252 -0.237524,0.59477 -0.431571,0.9676 -0.194048,0.37314 -0.508979,0.91742 -0.947973,1.63233 l -0.278879,-3.67938 h -1.221549 l -0.0509,0.22819 c 0.149512,0.0125 0.25661,0.0469 0.321293,0.10234 0.06574,0.0559 0.1124,0.13998 0.13997,0.25227 0.02757,0.11187 0.0509,0.25809 0.06998,0.43825 l 0.354165,3.51248 h 0.624559 c 0.42521,-0.65276 0.782555,-1.23267 1.070976,-1.73964 0.289483,-0.50707 0.517463,-0.96727 0.686062,-1.38103 l 0.0509,0.004 c 0.0063,0.13425 0.01696,0.32394 0.03394,0.56911 0.01802,0.24611 0.03393,0.44493 0.04984,0.59687 l 0.190867,1.95014 h 0.554575 c 0.270395,-0.367 0.504737,-0.69752 0.704087,-0.99124 0.19829,-0.29404 0.377493,-0.56582 0.537609,-0.81638 0.160116,-0.25014 0.299026,-0.47928 0.416727,-0.68797 0.118761,-0.20836 0.2301,-0.41758 0.336138,-0.62711 0.104976,-0.21047 0.190867,-0.38979 0.256611,-0.53887 0.06468,-0.1492 0.151632,-0.36212 0.260851,-0.6392 l -0.126185,-0.23275 h -1.202462 l -0.04666,0.2282 c 0.149513,0.009 0.254489,0.0402 0.317051,0.0932 0.06256,0.0526 0.09331,0.1529 0.09331,0.2987 0,0.323 -0.127246,0.74259 -0.379615,1.25708 -0.253428,0.5148 -0.622438,1.11668 -1.107029,1.80719 l -0.340379,-3.68437 v 0" />
    <path
       inkscape:connector-curvature="0"
       id="path21661"
       style="fill:#344ea8;fill-opacity:1;fill-rule:nonzero;stroke:none;stroke-width:0.10603728"
       d="m 49.805707,128.84906 h -0.177083 l -1.051889,0.0398 -0.04347,0.24642 c 0.156936,0.005 0.266154,0.0289 0.328717,0.0724 0.06044,0.0436 0.09437,0.11314 0.09968,0.20719 0,0.0144 0,0.0307 0,0.0488 0,0.0178 -0.0032,0.0374 -0.0074,0.0564 -0.01272,0.11388 -0.03181,0.24018 -0.06045,0.37898 -0.02757,0.13912 -0.05832,0.28375 -0.09437,0.43327 -0.035,0.15036 -0.06998,0.30157 -0.106036,0.45351 -0.03605,0.15292 -0.06998,0.29829 -0.100739,0.43741 -0.02969,0.13923 -0.05408,0.26806 -0.07423,0.3865 -0.01909,0.11845 -0.02863,0.21749 -0.02863,0.29734 0,0.0991 0.01484,0.1898 0.04347,0.2722 0.02969,0.0824 0.06998,0.15279 0.124063,0.2125 0.05196,0.0588 0.115581,0.10562 0.189807,0.13912 0.07317,0.0341 0.155875,0.0514 0.248128,0.0514 0.09862,0 0.192987,-0.0125 0.280999,-0.0369 0.08801,-0.024 0.178142,-0.0639 0.269333,-0.11972 0.09225,-0.0555 0.189807,-0.12714 0.291603,-0.21578 0.102858,-0.0883 0.217376,-0.19638 0.343561,-0.3248 l -0.247067,-0.23889 c -0.07211,0.0795 -0.137848,0.14781 -0.197229,0.20454 -0.05937,0.0571 -0.113459,0.10322 -0.163298,0.13966 -0.04878,0.0364 -0.09543,0.0629 -0.138909,0.0803 -0.04347,0.0166 -0.08801,0.0253 -0.131485,0.0253 -0.07423,0 -0.130426,-0.0208 -0.1686,-0.0617 -0.03712,-0.0415 -0.05514,-0.1077 -0.05514,-0.19968 0,-0.0679 0.0063,-0.14421 0.01908,-0.22861 0.01378,-0.085 0.03712,-0.19808 0.07104,-0.34091 z m -0.388097,-1.46215 -0.169659,0.77948 h 0.717872 l 0.177082,-0.77948 H 49.41761 v 0" />
    <path
       inkscape:connector-curvature="0"
       id="path21663"
       style="fill:#3ab856;fill-opacity:1;fill-rule:nonzero;stroke:none;stroke-width:0.10603728"
       d="m 1.9404821,110.58616 c 0.2035916,-0.0824 0.404002,-0.19384 0.6012313,-0.33339 0.1972294,-0.14007 0.387036,-0.3041 0.5704805,-0.49211 0.1834445,-0.18843 0.3562853,-0.38895 0.5174619,-0.60144 0.162237,-0.21335 0.3096288,-0.43243 0.4421754,-0.65819 0.1346673,-0.22532 0.2491877,-0.44524 0.3456815,-0.65986 0.095434,-0.21452 0.1707201,-0.41831 0.2237387,-0.61046 0.051959,-0.19352 0.078468,-0.36413 0.078468,-0.51322 0,-0.19638 -0.048777,-0.35247 -0.1484521,-0.46932 -0.099675,-0.11642 -0.2608516,-0.17475 -0.4845903,-0.17475 -0.1145202,0 -0.233282,0.0232 -0.3541646,0.07 -0.1208825,0.0468 -0.2385838,0.1089 -0.3520437,0.18674 -0.1134598,0.0776 -0.2205574,0.16774 -0.3212929,0.27007 -0.1007354,0.10321 -0.1887464,0.21048 -0.2629725,0.32224 l 0.2650933,0.23784 c 0.1177013,-0.16488 0.2322216,-0.29785 0.3425003,-0.39891 0.1102788,-0.10103 0.2311613,-0.15163 0.3615871,-0.15163 0.101796,0 0.1781427,0.0303 0.2258594,0.0912 0.047717,0.0604 0.072105,0.14696 0.072105,0.25883 0,0.25841 -0.042415,0.51438 -0.128305,0.7692 -0.08483,0.25511 -0.196169,0.49742 -0.332957,0.72815 -0.1367882,0.2299 -0.2905422,0.44366 -0.4612622,0.64078 -0.17072,0.19797 -0.3425004,0.36869 -0.5132204,0.51323 -0.17072,0.14495 -0.3329571,0.25841 -0.4888318,0.3409 -0.1548145,0.082 -0.28418,0.12343 -0.3870361,0.12343 -0.043475,0 -0.073166,-0.0402 -0.088011,-0.12183 -0.015905,-0.0804 -0.023328,-0.18599 -0.023328,-0.31684 0,-0.13011 0.00849,-0.28047 0.02757,-0.44982 0.018027,-0.16986 0.042415,-0.34302 0.069984,-0.52021 l 0.2608523,-1.68836 c 0.00636,-0.0344 0.010606,-0.0716 0.013784,-0.11187 0.00318,-0.0406 0.0053,-0.0824 0.0053,-0.12587 0,-0.075 -0.00849,-0.15004 -0.023328,-0.22617 -0.015905,-0.0762 -0.044536,-0.14665 -0.08695,-0.21049 -0.041355,-0.0632 -0.099675,-0.11473 -0.1739012,-0.15365 -0.075287,-0.0389 -0.1717804,-0.0584 -0.2894817,-0.0584 -0.1399692,0 -0.2767573,0.0245 -0.4103643,0.0725 -0.13360696,0.0481 -0.26085169,0.11187 -0.38173417,0.19098 -0.1208825,0.08 -0.23646312,0.16818 -0.34462114,0.26626 C 0.1982897,106.71951 0.09543355,106.81855 0,106.91791 l 0.22373865,0.26052 c 0.0561997,-0.0559 0.11664099,-0.11515 0.18132373,-0.17888 0.0657431,-0.0639 0.13360696,-0.12385 0.20359156,-0.17973 0.0689243,-0.056 0.13890883,-0.1019 0.20677268,-0.13753 0.0678639,-0.0356 0.13148622,-0.0538 0.19086708,-0.0538 0.074226,0 0.1272447,0.0315 0.1579955,0.0936 0.031811,0.0621 0.046657,0.14124 0.046657,0.23773 0,0.0311 -0.00318,0.0804 -0.011664,0.14708 -0.00743,0.0667 -0.016966,0.13711 -0.029691,0.21208 l -0.19616896,1.29184 c -0.0339319,0.20508 -0.0615016,0.40931 -0.0837694,0.61099 -0.0212074,0.20254 -0.0328715,0.39181 -0.0328715,0.56911 0,0.13424 0.008482,0.25682 0.0233282,0.36869 0.0159055,0.11176 0.0424149,0.2091 0.079528,0.2916 0.0371131,0.082 0.0869507,0.1458 0.14739176,0.19087 0.060441,0.0448 0.1357277,0.0675 0.2247991,0.0675 0.2025311,0 0.4061227,-0.0411 0.6086539,-0.12342 v 0" />
    <path
       inkscape:connector-curvature="0"
       id="path21665"
       style="fill:#3ab856;fill-opacity:1;fill-rule:nonzero;stroke:none;stroke-width:0.10603728"
       d="M 6.4640321,108.74418 H 6.2858895 l -1.0508294,0.0402 -0.043475,0.24642 c 0.1569353,0.005 0.2661536,0.029 0.3287156,0.0725 0.061502,0.0435 0.094373,0.11218 0.098614,0.20708 0,0.0145 0,0.0302 0,0.0485 0,0.0182 -0.00212,0.0369 -0.00636,0.0562 -0.012725,0.11347 -0.032871,0.23986 -0.060441,0.37898 -0.02757,0.13965 -0.05938,0.28376 -0.094373,0.43369 -0.033932,0.14994 -0.069985,0.30115 -0.1060372,0.45363 -0.037113,0.15195 -0.069985,0.29817 -0.099675,0.43698 -0.030751,0.13912 -0.055139,0.26796 -0.074226,0.3864 -0.019087,0.11886 -0.029691,0.21791 -0.029691,0.29744 0,0.0994 0.014845,0.19012 0.043475,0.27209 0.029691,0.0825 0.069985,0.1529 0.1230032,0.2125 0.054079,0.0593 0.1177015,0.10562 0.1908672,0.13923 0.074226,0.0343 0.1569351,0.0509 0.2481272,0.0509 0.098614,0 0.1929878,-0.012 0.2809987,-0.0365 0.088011,-0.0236 0.1781427,-0.0633 0.2703951,-0.11929 0.091192,-0.0555 0.1887463,-0.12757 0.2916025,-0.2162 0.1028566,-0.0878 0.216316,-0.19586 0.3425003,-0.32427 L 6.692017,111.5413 c -0.072105,0.08 -0.1378484,0.14825 -0.1972293,0.20509 -0.05938,0.0564 -0.1134599,0.10311 -0.1632974,0.13912 -0.049837,0.0365 -0.095434,0.0635 -0.1389088,0.0804 -0.043475,0.0165 -0.086951,0.0252 -0.1304259,0.0252 -0.075287,0 -0.1314862,-0.0207 -0.1696597,-0.0622 -0.037113,-0.0406 -0.055139,-0.10693 -0.055139,-0.19924 0,-0.0678 0.00636,-0.14369 0.019087,-0.22819 0.013785,-0.085 0.037113,-0.1984 0.071045,-0.34134 z m -0.3880965,-1.46172 -0.1696595,0.77948 H 6.623088 l 0.1781426,-0.77948 h -0.725295 v 0" />
    <path
       inkscape:connector-curvature="0"
       id="path21667"
       style="fill:#040606;fill-opacity:1;fill-rule:nonzero;stroke:none;stroke-width:0.10603728"
       d="m 8.893346,130.75275 c -0.1590559,0.19012 -0.2831195,0.32882 -0.3732512,0.41746 -0.090132,0.089 -0.1590559,0.14496 -0.2067727,0.16818 -0.048777,0.0233 -0.094373,0.0348 -0.1378484,0.0348 -0.090132,0 -0.1442107,-0.0654 -0.1632974,-0.19585 H 7.6855815 l -0.1855653,0.84416 c 0.092252,0.0377 0.2120746,0.0563 0.358406,0.0563 0.1611767,0 0.2916025,-0.0199 0.3891568,-0.0584 0.098614,-0.0389 0.1982897,-0.10693 0.3032666,-0.20295 0.103916,-0.0965 0.2354027,-0.24558 0.395519,-0.44823 0.1601163,-0.20167 0.4050624,-0.53474 0.7337779,-0.99823 h 0.046657 c 0.022268,0.21207 0.080589,0.51651 0.1770822,0.91458 0.053019,0.22374 0.1134593,0.38894 0.1823843,0.49455 0.06786,0.10573 0.148452,0.1827 0.241765,0.23074 0.09331,0.0481 0.206772,0.0725 0.340379,0.0725 0.241765,0 0.450658,-0.0663 0.626681,-0.19797 0.17496,-0.13254 0.37219,-0.35999 0.589566,-0.68393 l -0.303267,-0.19999 c -0.149512,0.22989 -0.262972,0.37728 -0.342499,0.44271 -0.07847,0.0651 -0.160117,0.0982 -0.243887,0.0982 -0.04772,0 -0.08801,-0.009 -0.124063,-0.0261 -0.03499,-0.0169 -0.07104,-0.0463 -0.104976,-0.0883 -0.03393,-0.0418 -0.0668,-0.10518 -0.09543,-0.18885 -0.02969,-0.0841 -0.06362,-0.1984 -0.101796,-0.34302 -0.03923,-0.14454 -0.08377,-0.32554 -0.133607,-0.54345 -0.04984,-0.21737 -0.102856,-0.47547 -0.157995,-0.77407 l 0.315991,-0.39679 c 0.11558,-0.14294 0.22798,-0.27963 0.336138,-0.41058 0.109214,-0.13042 0.206772,-0.2406 0.293722,-0.33094 0.08695,-0.0898 0.152694,-0.15079 0.198291,-0.18143 0.04453,-0.031 0.08271,-0.0522 0.11346,-0.0613 0.03181,-0.01 0.06044,-0.0141 0.08907,-0.0141 0.09013,0 0.144211,0.066 0.162237,0.19638 h 0.326594 l 0.186626,-0.84459 c -0.09331,-0.0373 -0.213135,-0.0559 -0.359466,-0.0559 -0.161177,0 -0.290542,0.0199 -0.388096,0.0589 -0.09862,0.0384 -0.200411,0.10562 -0.305388,0.19998 -0.106036,0.0949 -0.235403,0.23986 -0.389156,0.43412 -0.153754,0.19384 -0.379614,0.50124 -0.678639,0.92115 h -0.04666 c -0.02757,-0.19585 -0.05938,-0.3847 -0.09543,-0.56656 -0.03605,-0.18228 -0.073166,-0.33433 -0.1134599,-0.45734 -0.040294,-0.12257 -0.082709,-0.21992 -0.1261844,-0.2916 -0.043475,-0.0712 -0.093312,-0.12957 -0.1495125,-0.17475 -0.055139,-0.0452 -0.1198222,-0.0786 -0.1929879,-0.10027 -0.072105,-0.0219 -0.1579955,-0.0327 -0.2544895,-0.0327 -0.244946,0 -0.4580809,0.0729 -0.6383443,0.21865 -0.179203,0.14666 -0.3679494,0.36742 -0.563058,0.66274 l 0.3022063,0.20051 c 0.1028566,-0.15534 0.1855652,-0.26965 0.2470669,-0.3425 0.062562,-0.0734 0.1198221,-0.12427 0.1728407,-0.15418 0.053018,-0.0294 0.1123995,-0.0443 0.1770822,-0.0443 0.059381,0 0.1081584,0.0121 0.1473918,0.0352 0.038173,0.0233 0.074226,0.0655 0.109219,0.12597 0.033932,0.0604 0.077407,0.18886 0.1304259,0.38481 0.051959,0.19553 0.103916,0.40718 0.153754,0.63411 0.049837,0.22745 0.097555,0.46349 0.1442107,0.70917 -0.3011459,0.37898 -0.5312468,0.66401 -0.6892423,0.85329 v 0" />
    <path
       inkscape:connector-curvature="0"
       id="path21669"
       style="fill:#040606;fill-opacity:1;fill-rule:nonzero;stroke:none;stroke-width:0.10603728"
       d="m 14.037214,130.12108 h -0.177082 l -1.050829,0.0402 -0.04347,0.24685 c 0.155876,0.004 0.266154,0.0289 0.327656,0.0724 0.06151,0.0435 0.09437,0.1123 0.09968,0.20678 0,0.014 0,0.031 0,0.0487 0,0.0182 -0.0032,0.0369 -0.0074,0.0568 -0.01167,0.11304 -0.03181,0.23932 -0.05937,0.37898 -0.02863,0.13869 -0.05939,0.2829 -0.09437,0.43326 -0.03605,0.14994 -0.07104,0.30115 -0.107096,0.45353 -0.03605,0.15205 -0.06998,0.29827 -0.09968,0.43698 -0.03075,0.13922 -0.05514,0.26806 -0.07423,0.38608 -0.02014,0.11844 -0.02863,0.21822 -0.02863,0.29775 0,0.0991 0.01379,0.19013 0.04347,0.27177 0.02863,0.0824 0.06892,0.15322 0.123003,0.2125 0.05302,0.0592 0.115582,0.10606 0.189807,0.13955 0.07423,0.0341 0.156935,0.051 0.248128,0.051 0.09968,0 0.192988,-0.0121 0.280999,-0.0365 0.08801,-0.024 0.178142,-0.0641 0.270394,-0.11971 0.09119,-0.0555 0.188747,-0.12714 0.291603,-0.21578 0.102857,-0.0883 0.216317,-0.19639 0.3425,-0.3248 l -0.247067,-0.23933 c -0.07211,0.0803 -0.137848,0.14824 -0.197228,0.20497 -0.05939,0.0567 -0.11346,0.10366 -0.162237,0.13966 -0.04984,0.0364 -0.09649,0.0634 -0.139969,0.08 -0.04347,0.0169 -0.08695,0.0252 -0.130427,0.0252 -0.07529,0 -0.131486,-0.0203 -0.168599,-0.0617 -0.03817,-0.0411 -0.0562,-0.1077 -0.0562,-0.19924 0,-0.0679 0.0063,-0.1438 0.02015,-0.22862 0.01272,-0.0845 0.03712,-0.1984 0.06998,-0.34091 z m -0.387036,-1.4614 -0.17072,0.77958 h 0.717872 l 0.177083,-0.77958 h -0.724235 v 0" />
    <path
       inkscape:connector-curvature="0"
       id="path21671"
       style="fill:#040606;fill-opacity:1;fill-rule:nonzero;stroke:none;stroke-width:0.10603728"
       d="m 105.4329,120.32425 c 0.9098,0.40676 1.3191,1.47498 0.91298,2.38626 -0.40718,0.91129 -1.47392,1.31964 -2.38478,0.9133 -0.9098,-0.40633 -1.31804,-1.47497 -0.91298,-2.38583 0.40718,-0.91119 1.47392,-1.32006 2.38478,-0.91373 z M 6.7832442,92.95751 c -0.978724,-0.191292 -1.616008,-1.140325 -1.4251409,-2.119897 0.1908671,-0.978724 1.1388403,-1.617917 2.1175643,-1.426096 0.9776637,0.190974 1.6160081,1.139901 1.4251409,2.119049 -0.190867,0.979254 -1.1388403,1.617916 -2.1175643,1.426944 z m 0.4326321,-2.216391 6.0441247,1.181361 6.139557,1.308393 6.211664,1.427368 6.267863,1.542525 12.626918,3.403171 12.632221,3.793273 12.497553,4.13714 12.216554,4.4366 5.961415,2.31671 5.837352,2.37502 5.696322,2.42687 5.53409,2.47194 -0.36901,0.82508 -5.528788,-2.47025 0.0063,0.003 -5.688899,-2.42432 0.0074,0.002 -5.830989,-2.37173 0.0063,0.002 -5.952933,-2.31373 0.0095,0.003 -12.20701,-4.43288 0.01272,0.005 -12.484828,-4.13376 0.01167,0.004 -12.621616,-3.78956 0.01272,0.003 -12.614194,-3.400621 0.0095,0.0022 -6.26044,-1.54041 0.0074,0.0016 -6.205301,-1.426095 0.0074,0.0017 -6.132135,-1.30691 0.0074,0.0017 -6.0409431,-1.180938 0.1728408,-0.886365" />
    <path
       inkscape:connector-curvature="0"
       id="path21673"
       style="fill:#344ea8;fill-opacity:1;fill-rule:nonzero;stroke:none;stroke-width:0.10603728"
       d="m 100.40054,119.25972 5.41079,2.71552 -5.41565,2.70491 z m -85.158532,4.51785 c -0.996754,-10e-4 -1.804129,-0.81061 -1.803846,-1.80843 0.0013,-0.99791 0.809982,-1.80582 1.807795,-1.80481 0.995695,10e-4 1.80307,0.81064 1.802788,1.80845 -0.0013,0.99781 -0.809982,1.80583 -1.806737,1.80479 z m 0.0022,-2.25786 86.056512,-4e-4 -0.002,0.90334 -86.05651,-4.7e-4 0.0015,-0.90249"
       sodipodi:nodetypes="cccccccccccccc" />
    <path
       inkscape:connector-curvature="0"
       id="path21675"
       style="fill:#040606;fill-opacity:1;fill-rule:nonzero;stroke:none;stroke-width:0.10603728"
       d="m 92.74656,85.973527 c -0.487771,-0.869824 -0.179202,-1.972081 0.690303,-2.459959 0.868445,-0.488407 1.969112,-0.179415 2.456883,0.690409 0.487772,0.869823 0.179203,1.971233 -0.690302,2.460064 -0.868446,0.488303 -1.969113,0.178885 -2.456884,-0.690514 z m 1.966992,-1.106393 2.120745,3.779274 1.899128,4.103961 1.660545,4.380298 1.4156,4.625023 1.1611,4.83752 0.89814,5.01853 0.62668,5.1672 0.34568,5.27165 -0.90026,0.0596 -0.34462,-5.26008 0.001,0.0253 -0.62243,-5.14239 0.003,0.0252 -0.89389,-4.99288 0.006,0.0257 -1.15474,-4.81144 0.007,0.027 -1.407118,-4.596932 0.0095,0.02774 -1.64994,-4.351665 0.01167,0.02937 -1.885342,-4.073315 0.01696,0.03106 -2.111201,-3.763475 0.785736,-0.442388" />
    <path
       inkscape:connector-curvature="0"
       id="path21677"
       style="fill:#3ab856;fill-opacity:1;fill-rule:nonzero;stroke:none;stroke-width:0.10603728"
       d="m 101.84438,96.636278 2.67426,-5.435577 2.74,5.403766 z m 4.66139,25.343342 c 0.007,0.99782 -0.7974,1.81133 -1.79415,1.81759 -0.99674,0.005 -1.80899,-0.79815 -1.81535,-1.79606 -0.006,-0.99781 0.7974,-1.81134 1.79415,-1.81748 0.99675,-0.005 1.81006,0.79856 1.81535,1.79595 z m -2.25647,0.0136 -0.15481,-26.27361 0.90238,-0.0055 0.15587,26.27318 -0.90344,0.005" />
    <path
       inkscape:connector-curvature="0"
       id="path21679"
       style="fill:#3ab856;fill-opacity:1;fill-rule:nonzero;stroke:none;stroke-width:0.10603728"
       d="m 109.96595,110.58616 c 0.20359,-0.0824 0.404,-0.19384 0.60123,-0.33339 0.19723,-0.14007 0.3881,-0.3041 0.57154,-0.49211 0.18239,-0.18843 0.35523,-0.38895 0.51747,-0.60144 0.16117,-0.21335 0.30856,-0.43243 0.44217,-0.65819 0.13361,-0.22532 0.24813,-0.44524 0.34463,-0.65986 0.0964,-0.21452 0.17072,-0.41831 0.22373,-0.61046 0.053,-0.19352 0.0795,-0.36413 0.0795,-0.51322 0,-0.19638 -0.0498,-0.35247 -0.14952,-0.46932 -0.0986,-0.11642 -0.26084,-0.17475 -0.48459,-0.17475 -0.11451,0 -0.23221,0.0232 -0.35416,0.07 -0.12088,0.0468 -0.23858,0.1089 -0.35205,0.18674 -0.11345,0.0776 -0.22055,0.16774 -0.32128,0.27007 -0.10071,0.10321 -0.18876,0.21048 -0.26298,0.32224 l 0.26615,0.23784 c 0.11771,-0.16488 0.23117,-0.29785 0.34144,-0.39891 0.11029,-0.10103 0.23117,-0.15163 0.36159,-0.15163 0.10289,0 0.17814,0.0303 0.22586,0.0912 0.0477,0.0604 0.0721,0.14696 0.0721,0.25883 0,0.25841 -0.0424,0.51438 -0.12831,0.7692 -0.0849,0.25511 -0.19617,0.49742 -0.33296,0.72815 -0.13678,0.2299 -0.29054,0.44366 -0.46126,0.64078 -0.17072,0.19797 -0.3425,0.36869 -0.51216,0.51323 -0.17178,0.14495 -0.33402,0.25841 -0.48989,0.3409 -0.15481,0.082 -0.28418,0.12343 -0.38598,0.12343 -0.0446,0 -0.0732,-0.0402 -0.0891,-0.12183 -0.0148,-0.0804 -0.0234,-0.18599 -0.0234,-0.31684 0,-0.13011 0.01,-0.28047 0.0286,-0.44982 0.018,-0.16986 0.0414,-0.34302 0.0689,-0.52021 l 0.26191,-1.68833 c 0.005,-0.0344 0.01,-0.0717 0.0138,-0.11186 0.002,-0.0406 0.004,-0.0824 0.004,-0.12588 0,-0.075 -0.009,-0.15004 -0.0233,-0.22617 -0.016,-0.0762 -0.0446,-0.14665 -0.0858,-0.21049 -0.0424,-0.0632 -0.10071,-0.11473 -0.17496,-0.15365 -0.0743,-0.0389 -0.17179,-0.0584 -0.28842,-0.0584 -0.13997,0 -0.27782,0.0245 -0.41037,0.0725 -0.13467,0.0481 -0.26085,0.11187 -0.38173,0.19099 -0.12195,0.08 -0.23753,0.16817 -0.34569,0.26625 -0.10921,0.0978 -0.21101,0.19681 -0.30751,0.29617 l 0.22374,0.26052 c 0.0562,-0.0559 0.11664,-0.11515 0.18239,-0.17887 0.0647,-0.0639 0.13254,-0.12385 0.20253,-0.17973 0.0689,-0.056 0.13891,-0.10191 0.20677,-0.13754 0.0689,-0.0356 0.13149,-0.0538 0.19193,-0.0538 0.0742,0 0.12618,0.0315 0.15799,0.0936 0.0307,0.0622 0.0467,0.14124 0.0467,0.23773 0,0.0311 -0.004,0.0804 -0.0117,0.14707 -0.009,0.0667 -0.018,0.13711 -0.0307,0.21208 l -0.19511,1.29184 c -0.0339,0.20509 -0.0626,0.40932 -0.0838,0.61099 -0.0223,0.20254 -0.0329,0.39181 -0.0329,0.56911 0,0.13424 0.007,0.25682 0.0233,0.36869 0.0159,0.11176 0.0414,0.2091 0.0795,0.2916 0.0371,0.082 0.0859,0.1458 0.14633,0.19087 0.0605,0.0448 0.13573,0.0675 0.22586,0.0675 0.20147,0 0.40401,-0.0411 0.60759,-0.12342 v 0" />
    <path
       inkscape:connector-curvature="0"
       id="path21681"
       style="fill:#3ab856;fill-opacity:1;fill-rule:nonzero;stroke:none;stroke-width:0.10603728"
       d="m 119.84332,110.56548 v -0.5551 h -1.79415 v -1.90867 h -0.58639 v 1.90867 h -1.79415 v 0.5551 h 1.79415 v 1.90782 h 0.58639 v -1.90782 z m -5.35382,-1.8213 h -0.17707 l -1.0519,0.0402 -0.0435,0.24642 c 0.15799,0.005 0.26721,0.029 0.32871,0.0725 0.0615,0.0435 0.0944,0.11218 0.0997,0.20708 0,0.0145 0,0.0302 0,0.0485 0,0.0182 -0.002,0.0369 -0.008,0.0562 -0.0117,0.11347 -0.0318,0.23986 -0.0594,0.37898 -0.0286,0.13965 -0.0604,0.28376 -0.0944,0.43369 -0.0349,0.14994 -0.071,0.30115 -0.10715,0.45363 -0.036,0.15195 -0.07,0.29817 -0.0997,0.43698 -0.0308,0.13912 -0.0552,0.26796 -0.0743,0.3864 -0.0191,0.11886 -0.0297,0.21791 -0.0297,0.29744 0,0.0994 0.0149,0.19012 0.0435,0.27209 0.0297,0.0825 0.071,0.1529 0.12406,0.2125 0.053,0.0593 0.11559,0.10562 0.18982,0.13923 0.0743,0.0343 0.15693,0.0509 0.24812,0.0509 0.0986,0 0.19299,-0.012 0.281,-0.0365 0.088,-0.0236 0.17814,-0.0633 0.27039,-0.11929 0.0912,-0.0555 0.18875,-0.12757 0.2916,-0.2162 0.10289,-0.0878 0.21739,-0.19586 0.3425,-0.32427 l -0.24705,-0.23944 c -0.0721,0.08 -0.13786,0.14825 -0.19724,0.20509 -0.0594,0.0564 -0.11346,0.10311 -0.1633,0.13912 -0.0488,0.0365 -0.0955,0.0635 -0.13891,0.0804 -0.0435,0.0165 -0.0869,0.0252 -0.13043,0.0252 -0.0753,0 -0.13148,-0.0207 -0.16858,-0.0622 -0.0382,-0.0406 -0.0563,-0.10693 -0.0563,-0.19924 0,-0.0678 0.007,-0.14369 0.0202,-0.22819 0.0128,-0.085 0.0361,-0.1984 0.07,-0.34134 z m -0.3881,-1.46172 -0.16966,0.77948 h 0.71682 l 0.17814,-0.77948 h -0.7253 v 0" />
    <path
       inkscape:connector-curvature="0"
       id="path21683"
       style="fill:#3ab856;fill-opacity:1;fill-rule:nonzero;stroke:none;stroke-width:0.10603728"
       d="m 122.44124,108.697 c 0,-0.0965 0.001,-0.19426 0.001,-0.29372 0.001,-0.0994 0.003,-0.20126 0.007,-0.30646 0.002,-0.10529 0.005,-0.22459 0.0109,-0.35756 h -0.22056 c -0.30327,0.16245 -0.60018,0.3248 -0.89389,0.48799 -0.29372,0.16277 -0.59063,0.32723 -0.88966,0.4917 0.0286,0.058 0.0563,0.11473 0.0838,0.17018 0.0265,0.0556 0.0552,0.11145 0.0869,0.16691 0.23329,-0.15195 0.42522,-0.26711 0.57261,-0.3442 0.14633,-0.0779 0.25766,-0.11633 0.33295,-0.11633 0.0678,0 0.11982,0.0194 0.15587,0.058 0.0361,0.0384 0.0541,0.10562 0.0541,0.19956 v 2.60131 c 0,0.0815 -0.004,0.15111 -0.0128,0.20667 -0.009,0.055 -0.0191,0.10322 -0.034,0.14124 -0.0148,0.0389 -0.034,0.0709 -0.0583,0.0961 -0.0244,0.0257 -0.053,0.0489 -0.087,0.0705 -0.0318,0.0199 -0.0678,0.0365 -0.11028,0.0493 -0.0424,0.0136 -0.0986,0.0252 -0.1686,0.0365 -0.07,0.0109 -0.15482,0.0194 -0.25343,0.0252 -0.0997,0.007 -0.22056,0.0116 -0.36265,0.0165 v 0.31526 h 2.87362 v -0.31526 c -0.14739,-0.002 -0.27358,-0.007 -0.37856,-0.0128 -0.10496,-0.005 -0.19511,-0.0144 -0.26934,-0.0257 -0.0752,-0.0109 -0.13678,-0.0237 -0.18556,-0.0398 -0.0488,-0.0153 -0.0869,-0.0377 -0.11558,-0.0672 -0.0244,-0.019 -0.0456,-0.0417 -0.0636,-0.0687 -0.018,-0.0265 -0.0329,-0.0589 -0.0435,-0.0961 -0.0109,-0.0378 -0.0191,-0.0833 -0.0234,-0.13795 -0.005,-0.0547 -0.008,-0.1193 -0.008,-0.19383 v -2.7574 0" />
    <path
       inkscape:connector-curvature="0"
       id="path21685"
       style="fill:#040606;fill-opacity:1;fill-rule:nonzero;stroke:none;stroke-width:0.10603728"
       d="m 108.26299,131.00745 c -0.15799,0.1897 -0.28206,0.32893 -0.37219,0.41758 -0.0901,0.0887 -0.15905,0.14452 -0.20677,0.16774 -0.0488,0.0232 -0.0944,0.0352 -0.13785,0.0352 -0.0901,0 -0.14527,-0.0655 -0.1633,-0.19637 h -0.32659 l -0.18663,0.84458 c 0.0933,0.0373 0.21314,0.0559 0.35947,0.0559 0.16118,0 0.2916,-0.0198 0.38916,-0.0584 0.0975,-0.0389 0.19935,-0.10638 0.30326,-0.20253 0.10392,-0.0969 0.23541,-0.246 0.39552,-0.44769 0.16012,-0.20253 0.40507,-0.53517 0.73378,-0.99823 h 0.0467 c 0.0223,0.21122 0.0806,0.51608 0.17708,0.91414 0.053,0.22364 0.11346,0.38853 0.18132,0.49414 0.0689,0.10605 0.14952,0.1827 0.24283,0.23074 0.0933,0.0481 0.20677,0.0724 0.34038,0.0724 0.24176,0 0.45172,-0.0663 0.62668,-0.19838 0.17602,-0.13213 0.37219,-0.35948 0.58957,-0.68342 l -0.30327,-0.20051 c -0.14952,0.23074 -0.26297,0.37823 -0.3425,0.44366 -0.0784,0.065 -0.16118,0.0978 -0.24495,0.0978 -0.0466,0 -0.0869,-0.009 -0.12301,-0.0253 -0.036,-0.0174 -0.071,-0.0472 -0.10496,-0.0889 -0.034,-0.0423 -0.0658,-0.10486 -0.0955,-0.18896 -0.0297,-0.0841 -0.0637,-0.19798 -0.1018,-0.34293 -0.0392,-0.14453 -0.0838,-0.32553 -0.13361,-0.54301 -0.0498,-0.21791 -0.10289,-0.4759 -0.15799,-0.77502 l 0.31599,-0.39596 c 0.11558,-0.14293 0.22692,-0.28004 0.33614,-0.41047 0.10813,-0.13052 0.20677,-0.2407 0.29372,-0.33135 0.0869,-0.0903 0.15269,-0.15079 0.1983,-0.18186 0.0446,-0.031 0.0827,-0.051 0.11345,-0.0604 0.0308,-0.009 0.0604,-0.0141 0.089,-0.0141 0.0901,0 0.14421,0.0654 0.16223,0.19586 h 0.3266 l 0.18663,-0.84406 c -0.0933,-0.0374 -0.21314,-0.056 -0.35947,-0.056 -0.16118,0 -0.29054,0.0196 -0.38809,0.058 -0.0986,0.0389 -0.20042,0.10562 -0.3054,0.20094 -0.10605,0.0948 -0.2354,0.23933 -0.38916,0.4336 -0.15374,0.19425 -0.37961,0.50166 -0.67863,0.92166 h -0.0466 c -0.0275,-0.19637 -0.0594,-0.38565 -0.0944,-0.56709 -0.036,-0.18185 -0.0743,-0.3338 -0.11452,-0.45722 -0.0403,-0.12269 -0.0827,-0.22003 -0.12618,-0.2916 -0.0435,-0.0712 -0.0933,-0.13011 -0.14951,-0.17486 -0.0551,-0.0452 -0.11982,-0.0782 -0.19299,-0.0998 -0.0732,-0.022 -0.15799,-0.0328 -0.25449,-0.0328 -0.24494,0 -0.45808,0.073 -0.63834,0.21918 -0.18027,0.14579 -0.36795,0.36699 -0.56306,0.66188 l 0.30221,0.20084 c 0.10285,-0.15567 0.18556,-0.26966 0.24706,-0.34335 0.0626,-0.0729 0.11982,-0.12428 0.17284,-0.15365 0.053,-0.0294 0.11134,-0.0439 0.17709,-0.0439 0.0583,0 0.10815,0.0111 0.14633,0.0347 0.0392,0.0233 0.0753,0.065 0.11028,0.12588 0.0339,0.0609 0.0774,0.18895 0.13042,0.3848 0.052,0.19596 0.10392,0.40718 0.15376,0.63463 0.0488,0.2265 0.0975,0.46349 0.14421,0.70865 -0.30115,0.3794 -0.53125,0.66358 -0.69031,0.8537 v 0" />
    <path
       inkscape:connector-curvature="0"
       id="path21687"
       style="fill:#040606;fill-opacity:1;fill-rule:nonzero;stroke:none;stroke-width:0.10603728"
       d="m 118.76175,132.19709 v -0.55511 h -1.79416 v -1.90825 h -0.58638 v 1.90825 h -1.79415 v 0.55511 h 1.79415 v 1.90824 h 0.58638 v -1.90824 z m -5.35383,-1.82131 h -0.17708 l -1.05188,0.0398 -0.0435,0.24643 c 0.15694,0.005 0.26722,0.0295 0.32872,0.073 0.0615,0.0439 0.0944,0.11261 0.0997,0.20709 0,0.0145 0,0.0303 0,0.0485 0,0.0182 -0.003,0.0372 -0.008,0.0564 -0.0117,0.11389 -0.0329,0.24028 -0.0594,0.37898 -0.0286,0.13964 -0.0604,0.28375 -0.0944,0.43411 -0.035,0.14951 -0.071,0.30072 -0.10715,0.4532 -0.0371,0.15238 -0.07,0.29776 -0.0997,0.43741 -0.0308,0.13869 -0.0552,0.26753 -0.0743,0.38598 -0.0191,0.11844 -0.0297,0.21748 -0.0297,0.29743 0,0.0994 0.0149,0.19013 0.0435,0.27209 0.0297,0.0825 0.07,0.15291 0.12301,0.2125 0.0541,0.0589 0.11664,0.10562 0.19086,0.13965 0.0743,0.034 0.15694,0.0509 0.24813,0.0509 0.0997,0 0.19299,-0.0123 0.281,-0.0365 0.088,-0.0239 0.17814,-0.0641 0.27039,-0.12004 0.0923,-0.0556 0.18875,-0.12723 0.29161,-0.21588 0.10289,-0.0882 0.21631,-0.19628 0.3425,-0.3247 l -0.24707,-0.239 c -0.0721,0.0795 -0.13785,0.14781 -0.19723,0.20508 -0.0594,0.0567 -0.11346,0.10267 -0.1633,0.13955 -0.0488,0.0365 -0.0955,0.063 -0.1389,0.0799 -0.0435,0.0165 -0.0869,0.0252 -0.13043,0.0252 -0.0752,0 -0.13148,-0.0206 -0.1686,-0.0617 -0.0381,-0.0415 -0.0561,-0.1077 -0.0561,-0.19967 0,-0.0675 0.007,-0.14411 0.0201,-0.22862 0.0128,-0.085 0.036,-0.19797 0.07,-0.34091 z m -0.38809,-1.46214 -0.16966,0.78032 h 0.71681 l 0.17814,-0.78032 h -0.72529 v 0" />
    <path
       inkscape:connector-curvature="0"
       id="path21689"
       style="fill:#040606;fill-opacity:1;fill-rule:nonzero;stroke:none;stroke-width:0.10603728"
       d="m 121.35966,130.32902 c 0,-0.0969 10e-4,-0.19468 10e-4,-0.29457 0.002,-0.0985 0.003,-0.20126 0.007,-0.30602 0.002,-0.1053 0.007,-0.22459 0.0109,-0.35755 h -0.22055 c -0.30327,0.16202 -0.60017,0.32478 -0.8939,0.48755 -0.29372,0.16362 -0.59062,0.32724 -0.88965,0.49212 0.0286,0.058 0.0572,0.11516 0.0838,0.17019 0.0254,0.056 0.0551,0.11144 0.0869,0.1669 0.23434,-0.15238 0.42415,-0.26711 0.5726,-0.34462 0.14739,-0.0774 0.25768,-0.11548 0.33297,-0.11548 0.0678,0 0.11982,0.019 0.15586,0.0579 0.036,0.0382 0.0541,0.10486 0.0541,0.19924 v 2.60132 c 0,0.0819 -0.004,0.1511 -0.0127,0.20666 -0.009,0.0555 -0.0191,0.10278 -0.034,0.14124 -0.0149,0.0385 -0.034,0.0709 -0.0583,0.0961 -0.0244,0.0252 -0.053,0.0494 -0.0869,0.0709 -0.0318,0.0196 -0.0678,0.036 -0.11028,0.0489 -0.0424,0.0132 -0.0986,0.0252 -0.1686,0.0365 -0.07,0.0109 -0.15481,0.0194 -0.25343,0.0252 -0.0997,0.007 -0.22056,0.0116 -0.36264,0.0165 v 0.31568 h 2.8736 V 133.728 c -0.14739,-0.002 -0.27358,-0.007 -0.37855,-0.0132 -0.10497,-0.005 -0.19511,-0.014 -0.26933,-0.0252 -0.0753,-0.0109 -0.1368,-0.0236 -0.18558,-0.0398 -0.0488,-0.0153 -0.0869,-0.0377 -0.11557,-0.0667 -0.0243,-0.0199 -0.0455,-0.0426 -0.0637,-0.0687 -0.018,-0.027 -0.0329,-0.0593 -0.0435,-0.0965 -0.0109,-0.0373 -0.0191,-0.0833 -0.0233,-0.13752 -0.005,-0.0547 -0.008,-0.1193 -0.008,-0.19426 v -2.75697 0" />
    <path
       inkscape:connector-curvature="0"
       id="path21691"
       style="fill:#3ab856;fill-opacity:1;fill-rule:nonzero;stroke:none;stroke-width:0.10603728"
       d="m 5.8176051,96.786562 1.2353342,-5.931831 3.9986657,4.548786 z M 17.000296,121.5065 c 0.254489,0.96473 -0.320233,1.95299 -1.285171,2.20769 -0.962819,0.25482 -1.950026,-0.32097 -2.205576,-1.28611 -0.253429,-0.96463 0.321293,-1.953 1.285172,-2.2077 0.963879,-0.25428 1.951086,0.32139 2.205575,1.28612 z m -2.181187,0.5762 -7.0504181,-26.74588 0.8716264,-0.230313 7.0514787,26.745883 -0.872687,0.23031" />
    <path
       inkscape:connector-curvature="0"
       id="path21693"
       style="fill:#040617;fill-opacity:1;fill-rule:nonzero;stroke:none;stroke-width:0.10603728"
       d="m 105.45198,120.33232 c 0.9098,0.40634 1.31804,1.47498 0.91192,2.38584 -0.40612,0.91118 -1.47286,1.32048 -2.38372,0.91372 -0.9098,-0.40633 -1.31804,-1.47498 -0.91192,-2.38583 0.40613,-0.91129 1.47286,-1.32006 2.38372,-0.91373 z M 54.828103,104.97873 c -0.949034,-0.30485 -1.470737,-1.32218 -1.166411,-2.27237 0.305388,-0.94936 1.321225,-1.47244 2.270259,-1.16715 0.949033,0.30484 1.471797,1.32206 1.16747,2.27184 -0.305387,0.94977 -1.321224,1.47296 -2.271318,1.16768 z m 0.690302,-2.15012 7.211159,2.37304 6.397228,2.15808 6.302856,2.23006 6.190456,2.2939 6.06003,2.3518 5.912638,2.40334 5.747221,2.44713 5.560597,2.48392 -0.36901,0.82476 -5.555295,-2.48159 0.0074,0.003 -5.740859,-2.44511 0.0074,0.003 -5.906275,-2.40026 0.0074,0.002 -6.054728,-2.34893 0.0074,0.002 -6.184094,-2.29178 0.0054,0.002 -6.296492,-2.22763 0.0063,0.002 -6.390867,-2.15595 0.0063,0.002 -7.207979,-2.37229 0.275697,-0.85986"
       sodipodi:nodetypes="cccccccccccccccccccccccccccccccccccc" />
    <path
       inkscape:connector-curvature="0"
       id="path21695"
       style="fill:#ee0c2a;fill-opacity:1;fill-rule:nonzero;stroke:none;stroke-width:0.10603728"
       d="m 14.500777,120.33034 c -0.906619,0.41545 -1.306379,1.48781 -0.890713,2.39496 0.414605,0.90662 1.485583,1.30595 2.392201,0.89093 0.905559,-0.41546 1.305319,-1.48707 0.889652,-2.39454 -0.414605,-0.90757 -1.485582,-1.30606 -2.39114,-0.89135 z m 37.647,-12.7107 3.797195,-4.71951 -6.049426,-0.2091 z m -0.493073,-3.2511 -36.591929,17.19406 0.376432,0.82137 36.590869,-17.19364 -0.375372,-0.82179"
       sodipodi:nodetypes="cccccccccccccc" />
    <path
       inkscape:connector-curvature="0"
       id="path21697"
       style="fill:#ee252a;fill-opacity:1;fill-rule:nonzero;stroke:none;stroke-width:0.10603728"
       d="m 14.481691,120.33946 c -0.902378,0.42331 -1.290475,1.49947 -0.868446,2.40239 0.423089,0.90343 1.498307,1.29238 2.400684,0.86865 0.902377,-0.42341 1.290474,-1.49862 0.867385,-2.40248 -0.422028,-0.90333 -1.497247,-1.29228 -2.399623,-0.86856 z m 76.055233,-30.702772 3.753719,-4.754711 -6.052607,-0.152376 z m -0.523825,-3.246118 -74.956686,35.17532 0.382794,0.81808 74.956687,-35.175323 -0.382795,-0.818077" />
    <path
       inkscape:connector-curvature="0"
       id="path21699"
       style="fill:#040606;fill-opacity:1;fill-rule:nonzero;stroke:none;stroke-width:0.10603728"
       d="m 194.80783,120.38275 c 0.87693,0.47345 1.20458,1.56904 0.73166,2.44712 -0.47399,0.87863 -1.5683,1.20661 -2.44522,0.73283 -0.87799,-0.47346 -1.20565,-1.56988 -0.73166,-2.44797 0.47292,-0.87821 1.56829,-1.20576 2.44522,-0.73198 z M 93.676898,86.950367 c -0.972362,-0.216635 -1.586319,-1.181256 -1.370002,-2.155525 0.216316,-0.973848 1.180195,-1.588439 2.153618,-1.371488 0.973421,0.216635 1.586317,1.180938 1.37,2.155633 -0.216316,0.97374 -1.180194,1.58759 -2.153616,1.37138 z m 0.489892,-2.204833 6.26892,1.394708 6.39087,1.560232 6.481,1.716532 6.54674,1.861909 6.58598,1.998484 6.5987,2.125729 6.58915,2.242898 6.54993,2.351909 6.48842,2.450405 6.39935,2.54002 6.28483,2.61986 6.14592,2.69027 5.9805,2.75114 5.78963,2.80373 5.57226,2.84562 5.32625,2.87584 -0.42839,0.79496 -5.322,-2.87339 0.01,0.005 -5.56378,-2.84148 0.009,0.004 -5.78115,-2.79887 0.008,0.004 -5.97202,-2.74785 0.008,0.003 -6.13743,-2.68657 0.007,0.003 -6.2774,-2.61659 0.008,0.002 -6.39192,-2.53705 0.007,0.003 -6.481,-2.44797 0.008,0.002 -6.54356,-2.348939 0.007,0.0022 -6.58067,-2.240877 0.008,0.0021 -6.59339,-2.12329 0.008,0.0025 -6.57748,-1.99647 0.007,0.002 -6.53826,-1.859788 0.009,0.0021 -6.47358,-1.713669 0.01,0.0017 -6.38238,-1.557795 0.009,0.002 -6.264687,-1.393753 0.196169,-0.881912" />
    <path
       inkscape:connector-curvature="0"
       id="path21703"
       style="fill:#040606;fill-opacity:1;fill-rule:nonzero;stroke:none;stroke-width:0.10603728"
       d="m 182.34381,85.925916 c -0.48777,-0.869823 -0.1792,-1.971657 0.6903,-2.460065 0.86952,-0.488302 1.97018,-0.179309 2.45689,0.690515 0.48883,0.869824 0.17921,1.971233 -0.68925,2.459959 -0.8695,0.488407 -1.9691,0.179415 -2.45794,-0.690409 z m 1.96806,-1.106393 2.11968,3.779275 1.89913,4.10396 1.6616,4.380188 1.4156,4.625134 1.16005,4.83752 0.89813,5.01853 0.62668,5.1672 0.34569,5.27165 -0.90026,0.0598 -0.34462,-5.26009 0.002,0.0252 -0.62351,-5.1428 0.003,0.0258 -0.89283,-4.99287 0.005,0.0261 -1.15474,-4.81102 0.008,0.0261 -1.40712,-4.597349 0.01,0.02818 -1.64994,-4.351664 0.0117,0.02937 -1.88428,-4.073316 0.016,0.03106 -2.1112,-3.763474 0.78679,-0.442388" />
    <path
       inkscape:connector-curvature="0"
       id="path21705"
       style="fill:#3ab856;fill-opacity:1;fill-rule:nonzero;stroke:none;stroke-width:0.10603728"
       d="m 197.63545,95.42569 -2.51414,-5.511818 -2.89694,5.32042 z m -5.45137,26.49734 c -0.0349,0.99696 0.74332,1.83412 1.74007,1.86933 0.99569,0.0352 1.83232,-0.74439 1.86731,-1.74177 0.035,-0.99697 -0.74331,-1.8337 -1.74006,-1.8689 -0.9957,-0.0352 -1.83233,0.74437 -1.86732,1.74134 z m 2.25435,0.0799 0.97449,-27.559725 -0.90238,-0.03149 -0.97343,27.559295 0.90132,0.0319" />
    <g
       id="g23914"
       transform="translate(-2.1166667)">
      <path
         d="m 200.94593,110.58616 c 0.2036,-0.0824 0.40401,-0.19384 0.60123,-0.33339 0.19723,-0.14007 0.38703,-0.3041 0.57049,-0.49211 0.18344,-0.18843 0.35628,-0.38895 0.51745,-0.60144 0.16118,-0.21335 0.30858,-0.43243 0.44218,-0.65819 0.13361,-0.22532 0.24919,-0.44524 0.34568,-0.65986 0.0955,-0.21452 0.17072,-0.41831 0.22374,-0.61046 0.052,-0.19352 0.0795,-0.36413 0.0795,-0.51322 0,-0.19638 -0.0498,-0.35247 -0.1495,-0.46932 -0.0997,-0.11642 -0.26086,-0.17475 -0.48459,-0.17475 -0.11453,0 -0.23329,0.0232 -0.35417,0.07 -0.12088,0.0468 -0.23858,0.1089 -0.35204,0.18674 -0.11347,0.0776 -0.22056,0.16774 -0.3213,0.27007 -0.10071,0.10321 -0.18874,0.21048 -0.26403,0.32224 l 0.26616,0.23784 c 0.11876,-0.16488 0.23221,-0.29785 0.3425,-0.39891 0.11027,-0.10103 0.23009,-0.15163 0.36052,-0.15163 0.10289,0 0.17815,0.0303 0.22693,0.0912 0.0477,0.0604 0.0721,0.14696 0.0721,0.25883 0,0.25841 -0.0424,0.51438 -0.1283,0.7692 -0.0858,0.25511 -0.19617,0.49742 -0.33296,0.72815 -0.13679,0.2299 -0.29054,0.44366 -0.46125,0.64078 -0.17178,0.19797 -0.3425,0.36869 -0.51323,0.51323 -0.17072,0.14495 -0.33296,0.25841 -0.48883,0.3409 -0.15588,0.082 -0.28418,0.12343 -0.38703,0.12343 -0.0435,0 -0.0721,-0.0402 -0.088,-0.12183 -0.0159,-0.0804 -0.0243,-0.18599 -0.0243,-0.31684 0,-0.13011 0.01,-0.28047 0.0286,-0.44982 0.018,-0.16986 0.0424,-0.34302 0.07,-0.52021 l 0.26084,-1.68836 c 0.007,-0.0344 0.0109,-0.0716 0.0138,-0.11187 0.003,-0.0406 0.005,-0.0824 0.005,-0.12587 0,-0.075 -0.009,-0.15004 -0.0244,-0.22617 -0.0148,-0.0762 -0.0435,-0.14665 -0.0858,-0.21049 -0.0414,-0.0632 -0.0997,-0.11473 -0.17495,-0.15365 -0.0743,-0.0389 -0.17072,-0.0584 -0.28843,-0.0584 -0.13997,0 -0.27675,0.0245 -0.41036,0.0725 -0.13361,0.0481 -0.26085,0.11187 -0.38173,0.19098 -0.12089,0.08 -0.23647,0.16818 -0.34463,0.26626 -0.10922,0.0978 -0.21207,0.1968 -0.3075,0.29617 l 0.22374,0.26052 c 0.0552,-0.0559 0.11664,-0.11515 0.18132,-0.17888 0.0658,-0.0639 0.13255,-0.12385 0.20253,-0.17973 0.07,-0.056 0.13997,-0.1019 0.20783,-0.13753 0.0678,-0.0356 0.13149,-0.0539 0.19088,-0.0539 0.0742,0 0.12723,0.0315 0.15799,0.0936 0.0318,0.0622 0.0466,0.14124 0.0466,0.23773 0,0.0311 -0.003,0.0804 -0.0117,0.14708 -0.008,0.0667 -0.018,0.13711 -0.0297,0.21208 l -0.19511,1.29184 c -0.0349,0.20508 -0.0636,0.40931 -0.0849,0.61099 -0.0212,0.20253 -0.0329,0.39181 -0.0329,0.56911 0,0.13423 0.009,0.25682 0.0244,0.36869 0.0148,0.11176 0.0414,0.2091 0.0784,0.2916 0.0371,0.082 0.0858,0.1458 0.14739,0.19087 0.0604,0.0448 0.13467,0.0675 0.2248,0.0675 0.20253,0 0.40506,-0.0411 0.60865,-0.12343 v 0"
         style="fill:#3ab856;fill-opacity:1;fill-rule:nonzero;stroke:none;stroke-width:0.10603728"
         id="path21707"
         inkscape:connector-curvature="0" />
      <path
         d="m 210.82331,110.56548 v -0.5551 h -1.79415 v -1.90867 h -0.58639 v 1.90867 h -1.79415 v 0.5551 h 1.79415 v 1.90782 h 0.58639 v -1.90782 z m -5.35382,-1.8213 h -0.17815 l -1.05083,0.0402 -0.0435,0.24642 c 0.15694,0.005 0.26722,0.029 0.32873,0.0725 0.0615,0.0435 0.0944,0.11218 0.0986,0.20708 0,0.0145 0,0.0302 0,0.0485 0,0.0182 -0.002,0.0369 -0.007,0.0562 -0.0128,0.11347 -0.0329,0.23986 -0.0604,0.37898 -0.0275,0.13965 -0.0594,0.28376 -0.0933,0.43369 -0.036,0.14994 -0.071,0.30115 -0.10813,0.45363 -0.036,0.15195 -0.0689,0.29817 -0.0986,0.43698 -0.0307,0.13912 -0.0552,0.26796 -0.0753,0.3864 -0.0191,0.11886 -0.0286,0.21791 -0.0286,0.29744 0,0.0994 0.0149,0.19012 0.0435,0.27209 0.0286,0.0825 0.07,0.1529 0.12301,0.2125 0.0541,0.0593 0.11664,0.10562 0.19086,0.13923 0.0732,0.0343 0.15587,0.0509 0.24813,0.0509 0.0986,0 0.19299,-0.012 0.281,-0.0365 0.088,-0.0236 0.17814,-0.0633 0.26933,-0.11929 0.0923,-0.0555 0.18981,-0.12757 0.29267,-0.2162 0.1018,-0.0878 0.21631,-0.19586 0.3425,-0.32427 l -0.24707,-0.23944 c -0.0721,0.08 -0.13784,0.14825 -0.19723,0.20509 -0.0594,0.0564 -0.11346,0.10311 -0.16329,0.13912 -0.0498,0.0365 -0.0964,0.0635 -0.13997,0.0804 -0.0435,0.0165 -0.087,0.0252 -0.13043,0.0252 -0.0743,0 -0.13043,-0.0207 -0.16754,-0.0622 -0.0382,-0.0406 -0.0561,-0.10693 -0.0561,-0.19924 0,-0.0678 0.007,-0.14369 0.0201,-0.22819 0.0128,-0.085 0.036,-0.1984 0.07,-0.34134 z m -0.3881,-1.46172 -0.17072,0.77948 h 0.71787 l 0.17814,-0.77948 h -0.72529 v 0"
         style="fill:#3ab856;fill-opacity:1;fill-rule:nonzero;stroke:none;stroke-width:0.10603728"
         id="path21709"
         inkscape:connector-curvature="0" />
      <path
         d="m 212.06181,111.82054 c 0.0626,-0.0969 0.14316,-0.20296 0.24283,-0.31896 0.0986,-0.11686 0.20784,-0.23615 0.3266,-0.35957 0.1177,-0.12301 0.23964,-0.24771 0.36583,-0.37357 0.12512,-0.12597 0.24495,-0.24644 0.36052,-0.36244 0.11452,-0.11686 0.22056,-0.22533 0.31706,-0.32681 0.0964,-0.10147 0.17496,-0.19097 0.2354,-0.26795 0.0795,-0.0899 0.14633,-0.17486 0.19935,-0.25439 0.053,-0.0799 0.0965,-0.15905 0.12831,-0.23773 0.0329,-0.0786 0.0563,-0.15821 0.0689,-0.23943 0.0138,-0.0813 0.0202,-0.1686 0.0202,-0.26256 0,-0.15788 -0.0244,-0.30369 -0.0743,-0.43952 -0.0488,-0.13541 -0.13042,-0.25142 -0.24071,-0.34833 -0.11133,-0.0965 -0.25554,-0.17358 -0.43369,-0.23032 -0.17708,-0.0562 -0.39128,-0.085 -0.64259,-0.085 -0.20783,0 -0.44217,0.029 -0.70195,0.0871 -0.2598,0.0579 -0.54398,0.1511 -0.85255,0.27909 v 0.70749 h 0.47399 c 0.0849,-0.23233 0.20359,-0.4092 0.35522,-0.53147 0.15269,-0.12215 0.34144,-0.18344 0.56518,-0.18344 0.13043,0 0.24601,0.0206 0.34674,0.0617 0.0997,0.0415 0.18238,0.0986 0.24813,0.17061 0.0658,0.0725 0.11558,0.16075 0.15057,0.26477 0.035,0.10431 0.052,0.21781 0.052,0.34123 0,0.12142 -0.0148,0.23445 -0.0455,0.34133 -0.0297,0.10606 -0.0859,0.22205 -0.16753,0.34791 -0.0827,0.12598 -0.19511,0.26923 -0.3372,0.42956 -0.14315,0.16117 -0.32766,0.35543 -0.55459,0.58236 -0.15056,0.15036 -0.28629,0.29489 -0.4093,0.43369 -0.12405,0.13923 -0.23434,0.27378 -0.32977,0.40464 -0.0975,0.13053 -0.1845,0.25979 -0.26085,0.3865 -0.0784,0.12671 -0.14527,0.25556 -0.2036,0.38608 v 0.18844 h 3.06979 c 0.0117,-0.17105 0.0234,-0.34421 0.034,-0.51864 0.0117,-0.1739 0.0223,-0.34705 0.035,-0.51894 h -0.33719 c -0.0414,0.10387 -0.0774,0.18599 -0.10814,0.24473 -0.0318,0.0597 -0.07,0.10398 -0.11451,0.13255 -0.0446,0.0295 -0.1007,0.0482 -0.1686,0.0568 -0.0678,0.009 -0.15799,0.0125 -0.27146,0.0125 h -1.34137 v 0"
         style="fill:#3ab856;fill-opacity:1;fill-rule:nonzero;stroke:none;stroke-width:0.10603728"
         id="path21711"
         inkscape:connector-curvature="0" />
    </g>
    <path
       inkscape:connector-curvature="0"
       id="path21713"
       style="fill:#040606;fill-opacity:1;fill-rule:nonzero;stroke:none;stroke-width:0.10603728"
       d="m 197.8613,130.75275 c -0.15799,0.19012 -0.28311,0.32882 -0.37324,0.41746 -0.0901,0.089 -0.15905,0.14496 -0.20678,0.16818 -0.0488,0.0233 -0.0944,0.0348 -0.13785,0.0348 -0.0901,0 -0.14421,-0.0654 -0.16329,-0.19585 h -0.32554 l -0.18662,0.84416 c 0.0933,0.0377 0.21207,0.0563 0.3584,0.0563 0.16118,0 0.2916,-0.0199 0.38916,-0.0584 0.0975,-0.0389 0.19935,-0.10693 0.30327,-0.20295 0.10387,-0.0965 0.2354,-0.24558 0.39551,-0.44823 0.16013,-0.20167 0.40507,-0.53474 0.73484,-0.99823 h 0.0466 c 0.0212,0.21207 0.0806,0.51651 0.17709,0.91458 0.052,0.22374 0.11239,0.38894 0.18131,0.49455 0.0678,0.10573 0.14952,0.1827 0.24283,0.23074 0.0923,0.0481 0.20572,0.0725 0.33932,0.0725 0.24282,0 0.45171,-0.0663 0.62668,-0.19797 0.17602,-0.13254 0.37219,-0.35999 0.58957,-0.68393 l -0.30221,-0.19999 c -0.14952,0.22989 -0.26403,0.37728 -0.34357,0.44271 -0.0784,0.0651 -0.16011,0.0982 -0.24387,0.0982 -0.0466,0 -0.088,-0.009 -0.12407,-0.0261 -0.035,-0.0169 -0.071,-0.0463 -0.10388,-0.0883 -0.035,-0.0418 -0.0668,-0.10518 -0.0964,-0.18885 -0.0297,-0.0841 -0.0636,-0.1984 -0.1018,-0.34302 -0.0392,-0.14454 -0.0838,-0.32554 -0.13255,-0.54345 -0.0498,-0.21737 -0.10289,-0.47547 -0.15905,-0.77407 l 0.31705,-0.39679 c 0.11452,-0.14294 0.22693,-0.27963 0.33508,-0.41058 0.10923,-0.13042 0.20678,-0.2406 0.29372,-0.33094 0.0869,-0.0898 0.1527,-0.15079 0.19829,-0.18143 0.0446,-0.031 0.0827,-0.0522 0.11452,-0.0613 0.0308,-0.01 0.0604,-0.0141 0.088,-0.0141 0.0901,0 0.14421,0.066 0.16329,0.19638 h 0.32659 l 0.18558,-0.84459 c -0.0923,-0.0373 -0.21315,-0.0559 -0.35842,-0.0559 -0.16223,0 -0.29159,0.0199 -0.38915,0.0589 -0.0975,0.0384 -0.19935,0.10562 -0.30539,0.19998 -0.10496,0.0949 -0.2354,0.23986 -0.38916,0.43412 -0.15374,0.19384 -0.37961,0.50124 -0.67757,0.92115 h -0.0466 c -0.0275,-0.19585 -0.0604,-0.3847 -0.0955,-0.56656 -0.036,-0.18228 -0.0743,-0.33433 -0.11452,-0.45734 -0.0403,-0.12257 -0.0827,-0.21992 -0.12513,-0.2916 -0.0446,-0.0712 -0.0933,-0.12957 -0.14951,-0.17475 -0.0562,-0.0452 -0.12088,-0.0786 -0.19405,-0.10027 -0.0732,-0.0219 -0.15799,-0.0327 -0.25343,-0.0327 -0.246,0 -0.45808,0.0729 -0.63834,0.21865 -0.18027,0.14666 -0.36795,0.36742 -0.56412,0.66274 l 0.30327,0.20051 c 0.10289,-0.15534 0.1845,-0.26965 0.24706,-0.3425 0.0615,-0.0734 0.11982,-0.12427 0.17178,-0.15418 0.053,-0.0294 0.11241,-0.0443 0.17709,-0.0443 0.0594,0 0.10813,0.0121 0.14739,0.0352 0.0382,0.0233 0.0743,0.0655 0.10922,0.12597 0.034,0.0604 0.0774,0.18886 0.13043,0.38481 0.052,0.19553 0.10387,0.40718 0.15376,0.63411 0.0498,0.22745 0.0975,0.46349 0.14421,0.70917 -0.30115,0.37898 -0.53125,0.66401 -0.68925,0.85329 v 0" />
    <path
       inkscape:connector-curvature="0"
       id="path21715"
       style="fill:#040606;fill-opacity:1;fill-rule:nonzero;stroke:none;stroke-width:0.10603728"
       d="m 208.35899,132.19709 v -0.55511 h -1.79309 v -1.90825 h -0.58743 v 1.90825 h -1.79416 v 0.55511 h 1.79416 v 1.90824 h 0.58743 v -1.90824 z m -5.35382,-1.82131 h -0.17707 l -1.05084,0.0398 -0.0435,0.24643 c 0.15693,0.005 0.26616,0.0295 0.32765,0.073 0.0615,0.0439 0.0944,0.11261 0.0997,0.20709 0,0.0145 0,0.0303 0,0.0485 0,0.0182 -0.002,0.0372 -0.008,0.0564 -0.0117,0.11389 -0.0318,0.24028 -0.0594,0.37898 -0.0286,0.13964 -0.0594,0.28375 -0.0944,0.43411 -0.035,0.14951 -0.0711,0.30072 -0.10715,0.4532 -0.0361,0.15238 -0.07,0.29776 -0.0997,0.43741 -0.0297,0.13869 -0.0552,0.26753 -0.0743,0.38598 -0.0191,0.11844 -0.0286,0.21748 -0.0286,0.29743 0,0.0994 0.0149,0.19013 0.0435,0.27209 0.0286,0.0825 0.07,0.15291 0.12301,0.2125 0.053,0.0589 0.11663,0.10562 0.1898,0.13965 0.0743,0.034 0.15693,0.0509 0.24813,0.0509 0.0997,0 0.19299,-0.0123 0.281,-0.0365 0.088,-0.0239 0.17814,-0.0641 0.27039,-0.12004 0.0923,-0.0556 0.18875,-0.12723 0.2916,-0.21588 0.10289,-0.0882 0.21738,-0.19628 0.34251,-0.3247 l -0.24601,-0.239 c -0.0721,0.0795 -0.13891,0.14781 -0.19829,0.20508 -0.0583,0.0567 -0.11346,0.10267 -0.16224,0.13955 -0.0498,0.0365 -0.0965,0.063 -0.13996,0.0799 -0.0435,0.0165 -0.087,0.0252 -0.13043,0.0252 -0.0753,0 -0.13149,-0.0206 -0.1686,-0.0617 -0.0371,-0.0415 -0.0563,-0.1077 -0.0563,-0.19967 0,-0.0675 0.007,-0.14411 0.0202,-0.22862 0.0138,-0.085 0.036,-0.19797 0.07,-0.34091 z m -0.38703,-1.46214 -0.17072,0.78032 h 0.71681 l 0.17814,-0.78032 h -0.72423 v 0" />
    <path
       inkscape:connector-curvature="0"
       id="path21717"
       style="fill:#040606;fill-opacity:1;fill-rule:nonzero;stroke:none;stroke-width:0.10603728"
       d="m 209.59751,133.45214 c 0.0626,-0.0966 0.14421,-0.20296 0.24283,-0.31938 0.0997,-0.11601 0.20784,-0.23572 0.3266,-0.35915 0.11876,-0.12343 0.2407,-0.24813 0.36583,-0.37315 0.12617,-0.12597 0.24599,-0.24686 0.36158,-0.36285 0.11346,-0.11644 0.2195,-0.22534 0.31599,-0.32682 0.0975,-0.10147 0.17496,-0.19139 0.23646,-0.26838 0.0795,-0.0894 0.14528,-0.17443 0.19936,-0.25438 0.053,-0.0795 0.0955,-0.15863 0.12829,-0.23731 0.0329,-0.0783 0.0552,-0.15863 0.0689,-0.23943 0.0127,-0.0813 0.0201,-0.1686 0.0201,-0.26297 0,-0.15747 -0.0255,-0.30328 -0.0742,-0.43911 -0.0498,-0.13498 -0.13043,-0.25141 -0.24177,-0.34833 -0.11134,-0.0961 -0.25449,-0.17358 -0.43263,-0.22989 -0.17708,-0.0567 -0.39234,-0.0853 -0.64365,-0.0853 -0.20783,0 -0.44112,0.0291 -0.70091,0.0871 -0.25979,0.0579 -0.54502,0.1511 -0.8536,0.27952 v 0.70706 h 0.47505 c 0.0838,-0.23233 0.20253,-0.4092 0.35523,-0.53146 0.15163,-0.12173 0.34038,-0.18303 0.56518,-0.18303 0.13042,0 0.24601,0.0203 0.34567,0.0617 0.10071,0.0411 0.18345,0.0977 0.24813,0.17019 0.0658,0.0725 0.11558,0.16117 0.15058,0.26477 0.035,0.10388 0.053,0.21781 0.053,0.34124 0,0.12098 -0.0148,0.23444 -0.0455,0.3409 -0.0308,0.10649 -0.0858,0.2229 -0.1686,0.34792 -0.0827,0.12597 -0.19511,0.26921 -0.33719,0.4304 -0.14209,0.16075 -0.3266,0.35501 -0.55459,0.58193 -0.1495,0.15036 -0.2863,0.29489 -0.4093,0.43412 -0.12301,0.1388 -0.23328,0.27378 -0.32977,0.40421 -0.0965,0.13053 -0.18344,0.25937 -0.26085,0.38608 -0.0774,0.12714 -0.14527,0.25598 -0.2036,0.3865 v 0.18887 h 3.06979 c 0.0127,-0.17189 0.0243,-0.34463 0.035,-0.51864 0.0109,-0.17432 0.0223,-0.34748 0.034,-0.51894 h -0.33615 c -0.0414,0.10387 -0.0774,0.18556 -0.10922,0.24473 -0.0318,0.0593 -0.0689,0.10322 -0.11346,0.13212 -0.0455,0.0291 -0.1018,0.0485 -0.16966,0.0568 -0.0678,0.009 -0.158,0.0125 -0.27145,0.0125 h -1.34138 v 0" />
    <path
       inkscape:connector-curvature="0"
       id="path21721"
       style="fill:#040306;fill-opacity:1;fill-rule:nonzero;stroke:none;stroke-width:0.10603728"
       d="m 194.80995,120.38413 c 0.87693,0.47377 1.20352,1.5702 0.72954,2.4483 -0.47399,0.87778 -1.56936,1.20415 -2.44628,0.72943 -0.87693,-0.4742 -1.20353,-1.57062 -0.72848,-2.44829 0.47398,-0.87778 1.56935,-1.2046 2.44522,-0.72944 z m -46.50774,-17.16687 c -0.92995,-0.35946 -1.39227,-1.40573 -1.03281,-2.33653 0.35948,-0.930264 1.40501,-1.393009 2.33389,-1.033438 0.92995,0.359998 1.39227,1.405838 1.0328,2.336528 -0.35947,0.9308 -1.40499,1.39344 -2.33388,1.03344 z m 0.8133,-2.10622 6.56457,2.51836 6.01548,2.43971 5.87341,2.49601 5.71541,2.54234 5.53727,2.5818 5.33897,2.61116 5.12373,2.6327 4.88195,2.64266 -0.42945,0.794 -4.87772,-2.63968 0.009,0.004 -5.11524,-2.62855 0.009,0.004 -5.33156,-2.60746 0.008,0.003 -5.52985,-2.57767 0.008,0.003 -5.70798,-2.53948 0.008,0.003 -5.86809,-2.49315 0.008,0.003 -6.00807,-2.43716 0.007,0.003 -6.56139,-2.51708 0.32554,-0.84247"
       sodipodi:nodetypes="cccccccccccccccccccccccccccccccccccc" />
    <path
       inkscape:connector-curvature="0"
       id="path21725"
       style="fill:#040606;fill-opacity:1;fill-rule:nonzero;stroke:none;stroke-width:0.10603728"
       d="m 284.7175,120.11296 c 0.87799,0.47389 1.20458,1.56989 0.73166,2.44799 -0.47294,0.87809 -1.56829,1.20575 -2.44522,0.73186 -0.87799,-0.47387 -1.20458,-1.56987 -0.73166,-2.44797 0.47292,-0.8781 1.56829,-1.20575 2.44522,-0.73188 z M 183.58763,86.680583 c -0.97342,-0.21621 -1.58738,-1.181785 -1.37106,-2.155525 0.21631,-0.973846 1.18019,-1.588121 2.15361,-1.371486 0.97237,0.216209 1.58633,1.181785 1.37001,2.155525 -0.21632,0.973846 -1.1802,1.588121 -2.15256,1.371486 z m 0.48883,-2.204408 6.26999,1.394601 6.3898,1.560763 6.48101,1.715683 6.54673,1.861803 6.58597,1.99859 6.59976,2.126154 6.5881,2.243322 6.54992,2.351483 6.48842,2.449996 6.39935,2.54033 6.28484,2.61901 6.14591,2.69028 5.9805,2.75209 5.78858,2.80331 5.57332,2.84561 5.32626,2.87584 -0.4284,0.79528 -5.32201,-2.87339 0.01,0.004 -5.56377,-2.84138 0.009,0.004 -5.78114,-2.79959 0.009,0.003 -5.97308,-2.74743 0.009,0.003 -6.13955,-2.68688 0.009,0.003 -6.27847,-2.617 0.008,0.003 -6.39299,-2.53651 0.008,0.002 -6.481,-2.44797 0.008,0.002 -6.54356,-2.349045 0.007,0.0022 -6.58067,-2.240884 0.008,0.002 -6.59234,-2.123184 0.008,0.0024 -6.57856,-1.996471 0.008,0.0021 -6.53827,-1.859788 0.008,0.0024 -6.47252,-1.71441 0.008,0.0028 -6.38133,-1.558642 0.01,0.0021 -6.26574,-1.393436 0.19616,-0.881805" />
    <path
       inkscape:connector-curvature="0"
       id="path21729"
       style="fill:#040606;fill-opacity:1;fill-rule:nonzero;stroke:none;stroke-width:0.10603728"
       d="m 272.10754,85.834299 c -0.48882,-0.869823 -0.1792,-1.970808 0.68925,-2.459534 0.8695,-0.488301 1.96911,-0.179309 2.45795,0.690516 0.48776,0.870671 0.17919,1.971232 -0.69031,2.459957 -0.86845,0.488727 -1.96912,0.179309 -2.45689,-0.690939 z m 1.96699,-1.10512 2.11969,3.778426 1.89912,4.103962 1.66161,4.380722 1.41455,4.624601 1.16215,4.83752 0.89709,5.01854 0.62668,5.1673 0.34567,5.27249 -0.90026,0.0588 -0.34461,-5.25912 0.002,0.0248 -0.62349,-5.14238 0.003,0.0248 -0.89283,-4.99288 0.005,0.0261 -1.15475,-4.81144 0.008,0.027 -1.40711,-4.597251 0.01,0.02774 -1.64995,-4.351349 0.0128,0.02948 -1.8864,-4.07374 0.0169,0.03106 -2.11227,-3.763156 0.78785,-0.441964" />
    <path
       inkscape:connector-curvature="0"
       id="path21733"
       style="fill:#ee252a;fill-opacity:1;fill-rule:nonzero;stroke:none;stroke-width:0.10603728"
       d="m 193.18583,120.35282 c -0.90238,0.4234 -1.29047,1.49947 -0.86844,2.40281 0.42414,0.90301 1.49831,1.29238 2.40068,0.86908 0.90345,-0.42372 1.29153,-1.4999 0.86845,-2.40239 -0.42309,-0.90385 -1.49831,-1.29323 -2.40069,-0.8695 z m 76.05523,-30.702769 3.75372,-4.753863 -6.0526,-0.153648 z m -0.52382,-3.245696 -74.95669,35.175425 0.38386,0.81766 74.95669,-35.175855 -0.38386,-0.81723" />
    <path
       inkscape:connector-curvature="0"
       id="path21735"
       style="fill:#040606;fill-opacity:1;fill-rule:nonzero;stroke:none;stroke-width:0.10603728"
       d="m 275.61208,132.19793 v 1.08232 h 0.94055 v -1.08232 z m -2.28405,0 v 1.08232 h 0.94161 v -1.08232 z m -2.28298,0 v 1.08232 h 0.94161 v -1.08232 h -0.94161 v 0" />
    <path
       inkscape:connector-curvature="0"
       id="path21737"
       style="fill:#344ea8;fill-opacity:1;fill-rule:nonzero;stroke:none;stroke-width:0.10603728"
       d="m 137.87072,126.27639 h -0.67121 l -0.0509,0.22819 c -0.0498,0.29574 -0.12089,0.5795 -0.2142,0.85126 -0.0933,0.27252 -0.23646,0.59477 -0.43051,0.9676 -0.19404,0.37314 -0.5111,0.91742 -0.94903,1.63233 l -0.27888,-3.67938 h -1.22155 l -0.0509,0.22819 c 0.14846,0.0125 0.25661,0.0469 0.3213,0.10234 0.0658,0.0559 0.11239,0.13998 0.13997,0.25227 0.0275,0.11187 0.0509,0.25809 0.07,0.43825 l 0.35417,3.51248 h 0.62456 c 0.4252,-0.65276 0.78256,-1.23267 1.07098,-1.73964 0.28948,-0.50707 0.51745,-0.96727 0.68499,-1.38103 l 0.052,0.004 c 0.007,0.13425 0.0169,0.32394 0.035,0.56911 0.0169,0.24611 0.0329,0.44493 0.0487,0.59687 l 0.19087,1.95014 h 0.55457 c 0.2704,-0.367 0.50475,-0.69752 0.70409,-0.99124 0.19829,-0.29404 0.3775,-0.56582 0.53761,-0.81638 0.16012,-0.25014 0.29903,-0.47928 0.41673,-0.68797 0.11876,-0.20836 0.23011,-0.41758 0.33614,-0.62711 0.10497,-0.21047 0.19086,-0.38979 0.2566,-0.53887 0.0647,-0.1492 0.15164,-0.36212 0.26086,-0.6392 l -0.12618,-0.23275 h -1.20246 l -0.0466,0.2282 c 0.14952,0.009 0.25449,0.0402 0.31705,0.0932 0.0626,0.0526 0.0933,0.1529 0.0933,0.2987 0,0.323 -0.12617,0.74259 -0.37961,1.25708 -0.25342,0.5148 -0.62243,1.11668 -1.10702,1.80719 l -0.34038,-3.68437 v 0" />
    <path
       inkscape:connector-curvature="0"
       id="path21739"
       style="fill:#344ea8;fill-opacity:1;fill-rule:nonzero;stroke:none;stroke-width:0.10603728"
       d="m 147.3759,130.66983 v -0.555 h -1.79415 V 128.207 h -0.58639 v 1.90783 h -1.79415 v 0.555 h 1.79415 v 1.90836 h 0.58639 v -1.90836 z m -5.35382,-1.82077 h -0.17815 l -1.05082,0.0398 -0.0435,0.24642 c 0.15694,0.005 0.26721,0.0289 0.32872,0.0724 0.0615,0.0436 0.0944,0.11314 0.0986,0.20719 0,0.0144 0,0.0307 0,0.0488 0,0.0178 -0.002,0.0374 -0.007,0.0564 -0.0128,0.11388 -0.0329,0.24018 -0.0604,0.37898 -0.0275,0.13912 -0.0594,0.28375 -0.0933,0.43327 -0.036,0.15036 -0.071,0.30157 -0.10715,0.45351 -0.0371,0.15292 -0.07,0.29829 -0.0997,0.43741 -0.0308,0.13923 -0.0552,0.26806 -0.0752,0.3865 -0.0191,0.11845 -0.0286,0.21749 -0.0286,0.29734 0,0.0991 0.0149,0.1898 0.0435,0.2722 0.0286,0.0824 0.07,0.15279 0.123,0.2125 0.0541,0.0588 0.11664,0.10562 0.19087,0.13912 0.0732,0.0341 0.15694,0.0514 0.24813,0.0514 0.0986,0 0.19299,-0.0125 0.28099,-0.0369 0.088,-0.024 0.17815,-0.0639 0.26934,-0.11972 0.0923,-0.0555 0.1898,-0.12714 0.29266,-0.21578 0.10289,-0.0883 0.21632,-0.19638 0.3425,-0.3248 l -0.24706,-0.23889 c -0.0721,0.0795 -0.13785,0.14781 -0.19724,0.20454 -0.0594,0.0571 -0.11345,0.10322 -0.16329,0.13966 -0.0498,0.0364 -0.0955,0.0629 -0.13891,0.0803 -0.0446,0.0166 -0.088,0.0253 -0.13149,0.0253 -0.0743,0 -0.13042,-0.0208 -0.16753,-0.0617 -0.0382,-0.0415 -0.0562,-0.1077 -0.0562,-0.19968 0,-0.0679 0.007,-0.14421 0.0202,-0.22861 0.0128,-0.085 0.036,-0.19808 0.07,-0.34091 z m -0.3881,-1.46215 -0.17072,0.77948 h 0.71787 l 0.17815,-0.77948 h -0.7253 v 0" />
    <path
       inkscape:connector-curvature="0"
       id="path21741"
       style="fill:#344ea8;fill-opacity:1;fill-rule:nonzero;stroke:none;stroke-width:0.10603728"
       d="m 149.97276,128.80177 c 0,-0.0969 0.001,-0.19469 0.002,-0.29404 0.001,-0.0991 0.003,-0.20137 0.005,-0.30656 0.003,-0.10519 0.007,-0.22406 0.0117,-0.35703 h -0.22162 c -0.3022,0.16193 -0.59911,0.3248 -0.89283,0.48756 -0.29372,0.16362 -0.59062,0.32723 -0.89071,0.49202 0.0297,0.058 0.0572,0.11473 0.0838,0.17029 0.0265,0.0555 0.0563,0.11145 0.0869,0.16649 0.23434,-0.15196 0.4252,-0.2668 0.57366,-0.34421 0.14633,-0.0774 0.25766,-0.11642 0.33295,-0.11642 0.0669,0 0.11877,0.0199 0.15482,0.0584 0.0371,0.0384 0.0552,0.10518 0.0552,0.19923 v 2.60121 c 0,0.0825 -0.004,0.15121 -0.0128,0.20678 -0.009,0.0559 -0.0201,0.1031 -0.035,0.14155 -0.0138,0.0386 -0.0329,0.0708 -0.0572,0.0961 -0.0243,0.0252 -0.053,0.0493 -0.0869,0.0709 -0.0318,0.019 -0.0678,0.036 -0.11028,0.0489 -0.0424,0.0132 -0.0986,0.0252 -0.16861,0.0359 -0.071,0.0112 -0.15481,0.0199 -0.25342,0.0258 -0.0997,0.005 -0.22056,0.0116 -0.36265,0.0165 v 0.31524 h 2.87361 v -0.31524 c -0.14739,-0.003 -0.27357,-0.007 -0.37855,-0.0132 -0.10497,-0.005 -0.19511,-0.0145 -0.2704,-0.0252 -0.0742,-0.0109 -0.13572,-0.024 -0.1845,-0.0398 -0.0488,-0.0158 -0.087,-0.0382 -0.11664,-0.0667 -0.0234,-0.0199 -0.0446,-0.0427 -0.0626,-0.0697 -0.018,-0.0265 -0.0329,-0.0583 -0.0435,-0.0957 -0.0117,-0.0377 -0.0191,-0.0837 -0.0244,-0.13796 -0.004,-0.0546 -0.008,-0.11971 -0.008,-0.19425 v -2.75698 0" />
    <path
       inkscape:connector-curvature="0"
       id="path21743"
       style="fill:#344ea8;fill-opacity:1;fill-rule:nonzero;stroke:none;stroke-width:0.10603728"
       d="m 229.96091,126.27639 h -0.67121 l -0.052,0.22819 c -0.0498,0.29574 -0.12088,0.5795 -0.21419,0.85126 -0.0933,0.27252 -0.23646,0.59477 -0.43051,0.9676 -0.19405,0.37314 -0.5111,0.91742 -0.94904,1.63233 l -0.27887,-3.67938 h -1.22155 l -0.0498,0.22819 c 0.14845,0.0125 0.25555,0.0469 0.32023,0.10234 0.0658,0.0559 0.11241,0.13998 0.13997,0.25227 0.0275,0.11187 0.052,0.25809 0.07,0.43825 l 0.35416,3.51248 h 0.62456 c 0.42628,-0.65276 0.78362,-1.23267 1.07204,-1.73964 0.28948,-0.50707 0.5164,-0.96727 0.685,-1.38103 l 0.0509,0.004 c 0.007,0.13425 0.018,0.32394 0.035,0.56911 0.0169,0.24611 0.0329,0.44493 0.0498,0.59687 l 0.1898,1.95014 h 0.55564 c 0.27039,-0.367 0.50367,-0.69752 0.70302,-0.99124 0.1983,-0.29404 0.37855,-0.56582 0.53868,-0.81638 0.15905,-0.25014 0.29795,-0.47928 0.41671,-0.68797 0.11771,-0.20836 0.22905,-0.41758 0.33615,-0.62711 0.10496,-0.21047 0.18981,-0.38979 0.25555,-0.53887 0.0647,-0.1492 0.15163,-0.36212 0.26085,-0.6392 l -0.12513,-0.23275 h -1.20246 l -0.0466,0.2282 c 0.14951,0.009 0.25449,0.0402 0.31705,0.0932 0.0615,0.0526 0.0933,0.1529 0.0933,0.2987 0,0.323 -0.12725,0.74259 -0.38067,1.25708 -0.25344,0.5148 -0.62245,1.11668 -1.10704,1.80719 l -0.33932,-3.68437 v 0" />
    <path
       inkscape:connector-curvature="0"
       id="path21745"
       style="fill:#344ea8;fill-opacity:1;fill-rule:nonzero;stroke:none;stroke-width:0.10603728"
       d="m 239.46504,130.66983 v -0.555 h -1.79416 V 128.207 h -0.58638 v 1.90783 h -1.79415 v 0.555 h 1.79415 v 1.90836 h 0.58638 v -1.90836 z m -5.35278,-1.82077 h -0.17813 l -1.05083,0.0398 -0.0435,0.24642 c 0.15694,0.005 0.26616,0.0289 0.32766,0.0724 0.0615,0.0436 0.0944,0.11314 0.0997,0.20719 0,0.0144 0,0.0307 0,0.0488 0,0.0178 -0.002,0.0374 -0.008,0.0564 -0.0117,0.11388 -0.0318,0.24018 -0.0594,0.37898 -0.0286,0.13912 -0.0594,0.28375 -0.0944,0.43327 -0.035,0.15036 -0.0711,0.30157 -0.10715,0.45351 -0.036,0.15292 -0.07,0.29829 -0.0997,0.43741 -0.0297,0.13923 -0.0552,0.26806 -0.0743,0.3865 -0.0191,0.11845 -0.0286,0.21749 -0.0286,0.29734 0,0.0991 0.0138,0.1898 0.0435,0.2722 0.0286,0.0824 0.07,0.15279 0.12301,0.2125 0.053,0.0588 0.11664,0.10562 0.1898,0.13912 0.0743,0.0341 0.15694,0.0514 0.24919,0.0514 0.0986,0 0.19193,-0.0125 0.27994,-0.0369 0.088,-0.024 0.17814,-0.0639 0.27039,-0.11972 0.0923,-0.0555 0.18875,-0.12714 0.29161,-0.21578 0.10289,-0.0883 0.21737,-0.19638 0.3425,-0.3248 l -0.24601,-0.23889 c -0.0721,0.0795 -0.13891,0.14781 -0.19829,0.20454 -0.0583,0.0571 -0.11346,0.10322 -0.16224,0.13966 -0.0498,0.0364 -0.0965,0.0629 -0.13996,0.0803 -0.0435,0.0166 -0.0869,0.0253 -0.13043,0.0253 -0.0753,0 -0.13148,-0.0208 -0.1686,-0.0617 -0.0371,-0.0415 -0.0561,-0.1077 -0.0561,-0.19968 0,-0.0679 0.007,-0.14421 0.0201,-0.22861 0.0128,-0.085 0.036,-0.19808 0.071,-0.34091 z m -0.38808,-1.46215 -0.17072,0.77948 h 0.71787 l 0.17708,-0.77948 h -0.72423 v 0" />
    <path
       inkscape:connector-curvature="0"
       id="path21747"
       style="fill:#344ea8;fill-opacity:1;fill-rule:nonzero;stroke:none;stroke-width:0.10603728"
       d="m 240.70354,131.92489 c 0.0626,-0.0961 0.14421,-0.20296 0.24283,-0.31886 0.0997,-0.116 0.20784,-0.23614 0.3266,-0.35915 0.1177,-0.12343 0.2407,-0.24813 0.36583,-0.37399 0.12512,-0.12513 0.246,-0.24654 0.36052,-0.36243 0.11452,-0.11601 0.22056,-0.22502 0.31705,-0.3265 0.0964,-0.10147 0.17497,-0.19129 0.2354,-0.26838 0.0806,-0.0894 0.14634,-0.17432 0.19936,-0.25427 0.053,-0.0795 0.0965,-0.15863 0.12937,-0.23742 0.0318,-0.0791 0.0552,-0.15864 0.0689,-0.23933 0.0128,-0.0813 0.0201,-0.16859 0.0201,-0.26307 0,-0.15736 -0.0254,-0.30317 -0.0753,-0.439 -0.0488,-0.13594 -0.12937,-0.25152 -0.24071,-0.34844 -0.11134,-0.0965 -0.25555,-0.17347 -0.43263,-0.2302 -0.17814,-0.0568 -0.39234,-0.085 -0.64365,-0.085 -0.20783,0 -0.44112,0.0285 -0.70197,0.0865 -0.25872,0.058 -0.54396,0.15162 -0.85254,0.27919 v 0.7079 h 0.47505 c 0.0838,-0.23243 0.20253,-0.40973 0.35417,-0.53189 0.15269,-0.12214 0.34144,-0.18301 0.56624,-0.18301 0.13042,0 0.24601,0.0206 0.34567,0.0621 0.10071,0.0405 0.18345,0.0976 0.24813,0.1702 0.0658,0.0725 0.11559,0.16117 0.15058,0.26466 0.035,0.10399 0.053,0.21791 0.053,0.34134 0,0.12088 -0.0159,0.23445 -0.0457,0.34091 -0.0307,0.10649 -0.0869,0.22193 -0.1686,0.3479 -0.0827,0.12588 -0.19511,0.26923 -0.33719,0.43042 -0.14315,0.16021 -0.32766,0.35448 -0.55458,0.58193 -0.14951,0.15036 -0.28631,0.29446 -0.4093,0.43326 -0.123,0.13913 -0.23329,0.27422 -0.32978,0.40507 -0.0964,0.13053 -0.18344,0.25926 -0.26085,0.38608 -0.0774,0.12714 -0.14527,0.25597 -0.2036,0.38639 v 0.18854 h 3.06979 c 0.0128,-0.17156 0.0234,-0.3443 0.035,-0.51905 0.0109,-0.17401 0.0223,-0.34674 0.034,-0.5182 h -0.3372 c -0.0414,0.10365 -0.0774,0.18514 -0.10814,0.24441 -0.0318,0.0596 -0.07,0.10366 -0.11452,0.13255 -0.0446,0.0289 -0.10071,0.0476 -0.1686,0.0563 -0.0678,0.009 -0.15799,0.0125 -0.27145,0.0125 h -1.34137 v 0" />
    <path
       inkscape:connector-curvature="0"
       id="path21673-6"
       style="fill:#344ea8;fill-opacity:1;fill-rule:nonzero;stroke:none;stroke-width:0.10603728"
       d="m 189.85057,119.26022 5.41078,2.71552 -5.41565,2.70492 z m -85.15855,4.51785 c -0.99676,-0.001 -1.80413,-0.81061 -1.80384,-1.80843 10e-4,-0.99791 0.80998,-1.80582 1.8078,-1.80481 0.99569,0.001 1.80306,0.81064 1.80278,1.80845 -0.001,0.99781 -0.80998,1.80583 -1.80674,1.80479 z m 0.002,-2.25786 86.05651,-4e-4 -0.001,0.90334 -86.05651,-4.6e-4 10e-4,-0.90249"
       sodipodi:nodetypes="cccccccccccccc" />
    <path
       inkscape:connector-curvature="0"
       id="path21697-1"
       style="fill:#ee252a;fill-opacity:1;fill-rule:nonzero;stroke:none;stroke-width:0.10603728"
       d="m 103.92977,120.34208 c -0.90238,0.4233 -1.29048,1.49946 -0.86845,2.40238 0.42309,0.90343 1.49831,1.29238 2.40069,0.86865 0.90237,-0.42341 1.29047,-1.49862 0.86738,-2.40248 -0.42203,-0.90333 -1.49725,-1.29228 -2.39962,-0.86855 z m 76.05523,-30.702783 3.75372,-4.75471 -6.05262,-0.152376 z m -0.52383,-3.246118 -74.95668,35.175321 0.38279,0.81808 74.95669,-35.175324 -0.3828,-0.818077" />
    <path
       inkscape:connector-curvature="0"
       id="path21695-8"
       style="fill:#ee002a;fill-opacity:1;fill-rule:nonzero;stroke:none;stroke-width:0.10603728"
       d="m 103.94885,120.33295 c -0.90661,0.41545 -1.30637,1.48781 -0.89071,2.39496 0.41461,0.90662 1.48558,1.30596 2.3922,0.89093 0.90556,-0.41546 1.30532,-1.48707 0.88965,-2.39454 -0.4146,-0.90757 -1.48558,-1.30606 -2.39114,-0.89135 z m 41.5273,-14.52366 3.79719,-4.7195 -6.04942,-0.2091 z m -0.49308,-3.2511 -40.47222,19.00703 0.37643,0.82136 40.47117,-19.0066 -0.37538,-0.82179"
       sodipodi:nodetypes="cccccccccccccc" />
    <path
       inkscape:connector-curvature="0"
       id="path21673-6-7"
       style="fill:#344ea8;fill-opacity:1;fill-rule:nonzero;stroke:none;stroke-width:0.10603728"
       d="m 279.10736,119.26258 5.41078,2.71552 -5.41565,2.70491 z m -85.15855,4.51785 c -0.99676,-10e-4 -1.80413,-0.81061 -1.80385,-1.80843 0.001,-0.99791 0.80999,-1.80582 1.80781,-1.80481 0.99569,10e-4 1.80306,0.81064 1.80278,1.80845 -0.001,0.99781 -0.80998,1.80583 -1.80674,1.80479 z m 0.002,-2.25786 86.05651,-4e-4 -10e-4,0.90334 -86.05651,-4.6e-4 10e-4,-0.90249"
       sodipodi:nodetypes="cccccccccccccc" />
    <path
       inkscape:connector-curvature="0"
       id="path21695-8-9"
       style="fill:#ee042a;fill-opacity:1;fill-rule:nonzero;stroke:none;stroke-width:0.10603728"
       d="m 193.20599,120.34381 c -0.90662,0.41545 -1.30638,1.48781 -0.89071,2.39496 0.4146,0.90661 1.48558,1.30595 2.39219,0.89093 0.90557,-0.41546 1.30532,-1.48707 0.88966,-2.39454 -0.4146,-0.90757 -1.48558,-1.30607 -2.39114,-0.89135 z m 42.34009,-14.89394 3.79719,-4.7195 -6.04942,-0.2091 z m -0.49308,-3.25109 -41.28501,19.37729 0.37642,0.82137 41.28397,-19.37687 -0.37538,-0.82179"
       sodipodi:nodetypes="cccccccccccccc" />
    <path
       inkscape:connector-curvature="0"
       id="path21731"
       style="fill:#3ab856;fill-opacity:1;fill-rule:nonzero;stroke:none;stroke-width:0.10603728"
       d="m 287.5084,95.142039 -2.51414,-5.512347 -2.89695,5.320526 z m -5.45138,26.497231 c -0.035,0.99707 0.74438,1.8337 1.74007,1.8689 0.99569,0.0352 1.83232,-0.74427 1.86732,-1.74091 0.035,-0.99739 -0.74332,-1.83445 -1.74007,-1.86966 -0.99569,-0.0352 -1.83233,0.74428 -1.86732,1.74167 z m 2.25542,0.0795 0.97342,-27.559727 -0.90238,-0.03149 -0.97342,27.559407 0.90238,0.0318" />
    <g
       id="g23909"
       transform="translate(0,0.41694507)">
      <path
         d="m 288.73,110.31797 c 0.19,-0.0759 0.37,-0.17821 0.55,-0.30718 0.18,-0.12868 0.36,-0.28012 0.53,-0.45384 0.17,-0.17284 0.33,-0.3576 0.47,-0.55418 0.15,-0.1961 0.29,-0.39805 0.41,-0.60606 0.13,-0.20724 0.23,-0.41027 0.32,-0.60763 0.1,-0.19805 0.16,-0.38545 0.21,-0.56327 0,-0.17753 0.1,-0.33513 0.1,-0.47289 0,-0.18056 0,-0.32438 -0.14,-0.43166 -0.1,-0.10767 -0.24,-0.16141 -0.44,-0.16141 -0.11,0 -0.22,0.0213 -0.33,0.0645 -0.11,0.0427 -0.22,0.10073 -0.33,0.17215 -0.1,0.0717 -0.2,0.15457 -0.29,0.24915 -0.1,0.0943 -0.17,0.19355 -0.24,0.29663 l 0.24,0.21906 c 0.11,-0.15193 0.21,-0.27446 0.32,-0.36718 0.1,-0.0931 0.21,-0.14011 0.33,-0.14011 0.1,0 0.16,0.0282 0.21,0.084 0,0.0561 0.1,0.13542 0.1,0.2385 0,0.2382 0,0.47445 -0.11,0.70914 -0.1,0.23508 -0.19,0.45833 -0.31,0.67055 -0.13,0.21182 -0.27,0.40879 -0.43,0.59082 -0.15,0.18202 -0.31,0.33972 -0.47,0.47289 -0.16,0.13317 -0.31,0.23771 -0.45,0.31373 -0.14,0.0759 -0.26,0.11412 -0.36,0.11412 0,0 -0.1,-0.0374 -0.1,-0.11227 0,-0.0743 0,-0.17166 0,-0.29194 0,-0.12018 0,-0.25872 0,-0.41524 0,-0.15574 0,-0.31559 0.1,-0.47895 l 0.24,-1.55566 c 0,-0.0313 0,-0.0657 0,-0.10308 0,-0.037 0,-0.0759 0,-0.11597 0,-0.0691 0,-0.13816 0,-0.2084 0,-0.0703 0,-0.13513 -0.1,-0.19356 0,-0.0587 -0.1,-0.10611 -0.16,-0.14196 -0.1,-0.0355 -0.16,-0.0538 -0.27,-0.0538 -0.13,0 -0.25,0.0226 -0.38,0.0668 -0.12,0.0443 -0.24,0.10308 -0.35,0.17597 -0.11,0.0733 -0.22,0.15535 -0.32,0.24543 -0.1,0.09 -0.19,0.18124 -0.28,0.27289 l 0.21,0.24036 c 0,-0.0515 0.1,-0.10641 0.16,-0.16522 0.1,-0.0591 0.13,-0.11373 0.19,-0.16522 0.1,-0.0523 0.13,-0.0943 0.19,-0.12712 0.1,-0.0328 0.12,-0.0496 0.18,-0.0496 0.1,0 0.12,0.0286 0.14,0.0863 0,0.0573 0,0.13054 0,0.21906 0,0.0286 0,0.0741 0,0.13551 0,0.0615 0,0.12634 0,0.1958 l -0.18,1.18995 c 0,0.18935 -0.1,0.37714 -0.1,0.56297 0,0.18623 0,0.36141 0,0.52439 0,0.1233 0,0.23664 0,0.33972 0,0.10307 0,0.19277 0.1,0.26868 0,0.0759 0.1,0.13435 0.13,0.17597 0.1,0.0415 0.13,0.0625 0.21,0.0625 0.18,0 0.37,-0.0381 0.56,-0.11412 v 0"
         style="fill:#3ab856;fill-opacity:1;fill-rule:nonzero;stroke:none;stroke-width:0.09770473"
         id="path260"
         inkscape:connector-curvature="0" />
      <path
         d="m 292.41,109.45661 c 0,-0.0447 0,-0.0913 0,-0.1405 0,-0.0493 0,-0.0958 0,-0.14001 0,-0.17636 -0.1,-0.31833 -0.14,-0.42668 -0.1,-0.10767 -0.21,-0.16229 -0.38,-0.16229 -0.1,0 -0.18,0.0126 -0.26,0.0366 -0.1,0.0248 -0.16,0.0634 -0.25,0.11568 -0.1,0.0523 -0.17,0.11911 -0.26,0.20079 -0.1,0.0813 -0.2,0.17899 -0.31,0.29233 l 0.23,0.2172 c 0.1,-0.0691 0.13,-0.12946 0.18,-0.18017 0.1,-0.0516 0.11,-0.0935 0.15,-0.12751 0.1,-0.0336 0.1,-0.0584 0.13,-0.0747 0,-0.0168 0.1,-0.0256 0.12,-0.0256 0.14,0 0.2,0.0817 0.2,0.24426 0,0.058 0,0.13278 0,0.22404 0,0.0915 0,0.19502 -0.1,0.311 l -0.5,2.1793 h 0.65 l 0.38,-1.67818 c 0,-0.10229 0,-0.20527 0.1,-0.30914 0.1,-0.10376 0.1,-0.20263 0.17,-0.2977 0.1,-0.0943 0.13,-0.18359 0.2,-0.26713 0.1,-0.0839 0.15,-0.15574 0.23,-0.21758 0.1,-0.0611 0.16,-0.10914 0.23,-0.14344 0.1,-0.0348 0.15,-0.052 0.22,-0.052 0.11,0 0.2,0.0324 0.25,0.0973 0,0.0646 0.1,0.1661 0.1,0.30386 0,0.0584 0,0.13132 0,0.21906 0,0.0881 0,0.18857 -0.1,0.30112 0,0.11256 -0.1,0.23508 -0.1,0.36718 0,0.13278 -0.1,0.27132 -0.11,0.41641 0,0.14275 -0.1,0.27358 -0.1,0.39268 0,0.11949 0,0.22325 0,0.31256 0,0.0893 0,0.17137 0,0.24582 0,0.0748 0.1,0.13933 0.12,0.19385 0,0.0546 0.1,0.0973 0.17,0.12867 0.1,0.0313 0.14,0.0465 0.22,0.0465 0.1,0 0.19,-0.0129 0.27,-0.0381 0.1,-0.0256 0.17,-0.0649 0.26,-0.11686 0.1,-0.0527 0.17,-0.11861 0.26,-0.19883 0.1,-0.0809 0.2,-0.17626 0.3,-0.28774 l -0.23,-0.22061 c -0.1,0.0737 -0.12,0.13668 -0.18,0.18896 0,0.0523 -0.1,0.095 -0.14,0.12858 0,0.0332 -0.1,0.058 -0.13,0.0733 0,0.0156 -0.1,0.0233 -0.13,0.0233 -0.1,0 -0.12,-0.0183 -0.15,-0.0565 0,-0.0377 0,-0.0988 0,-0.18397 0,-0.0221 0,-0.079 0,-0.1702 0,-0.0916 0,-0.20186 0.1,-0.33083 0,-0.12946 0.1,-0.27025 0.1,-0.42297 0,-0.15261 0.1,-0.30151 0.1,-0.44651 0,-0.1446 0.1,-0.27855 0.1,-0.40108 0,-0.12213 0,-0.21797 0,-0.28744 0,-0.22932 -0.1,-0.40763 -0.18,-0.53464 -0.11,-0.12751 -0.29,-0.19092 -0.52,-0.19092 -0.23,0 -0.45,0.0741 -0.66,0.22101 -0.21,0.14695 -0.42,0.36874 -0.64,0.66488 v -0.0164 0"
         style="fill:#3ab856;fill-opacity:1;fill-rule:nonzero;stroke:none;stroke-width:0.09770473"
         id="path262"
         inkscape:connector-curvature="0" />
    </g>
  </g>
</svg>
