<?xml version="1.0" encoding="UTF-8" standalone="no"?>
<!-- Created with Inkscape (http://www.inkscape.org/) -->

<svg
   xmlns:dc="http://purl.org/dc/elements/1.1/"
   xmlns:cc="http://creativecommons.org/ns#"
   xmlns:rdf="http://www.w3.org/1999/02/22-rdf-syntax-ns#"
   xmlns:svg="http://www.w3.org/2000/svg"
   xmlns="http://www.w3.org/2000/svg"
   xmlns:sodipodi="http://sodipodi.sourceforge.net/DTD/sodipodi-0.dtd"
   xmlns:inkscape="http://www.inkscape.org/namespaces/inkscape"
   width="297mm"
   height="141.95969mm"
   viewBox="0 0 297 141.95969"
   version="1.1"
   id="svg22416"
   sodipodi:docname="schild_simple_construction.svg"
   inkscape:version="0.92.4 (unknown)">
  <defs
     id="defs22410" />
  <sodipodi:namedview
     id="base"
     pagecolor="#ffffff"
     bordercolor="#666666"
     borderopacity="1.0"
     inkscape:pageopacity="0.0"
     inkscape:pageshadow="2"
     inkscape:zoom="0.98994949"
     inkscape:cx="474.96519"
     inkscape:cy="315.13398"
     inkscape:document-units="mm"
     inkscape:current-layer="layer1"
     showgrid="false"
     fit-margin-top="0"
     fit-margin-left="0"
     fit-margin-right="0"
     fit-margin-bottom="0"
     inkscape:window-width="1920"
     inkscape:window-height="1049"
     inkscape:window-x="1920"
     inkscape:window-y="0"
     inkscape:window-maximized="1" />
  <metadata
     id="metadata22413">
    <rdf:RDF>
      <cc:Work
         rdf:about="">
        <dc:format>image/svg+xml</dc:format>
        <dc:type
           rdf:resource="http://purl.org/dc/dcmitype/StillImage" />
        <dc:title></dc:title>
      </cc:Work>
    </rdf:RDF>
  </metadata>
  <g
     inkscape:label="Layer 1"
     inkscape:groupmode="layer"
     id="layer1"
     transform="translate(5.0393601e-6,-87.092646)">
    <path
       inkscape:connector-curvature="0"
       id="path21609"
       style="fill:#040606;fill-opacity:1;fill-rule:nonzero;stroke:none;stroke-width:0.26050466"
       d="m 258.40262,195.50935 c 2.23769,1.00029 3.24329,3.62359 2.24293,5.86135 -0.99778,2.23769 -3.61842,3.2433 -5.85618,2.24293 -2.23511,-1.00036 -3.23806,-3.621 -2.24294,-5.86135 1.00037,-2.23776 3.62101,-3.2433 5.85619,-2.24293 z M 16.049942,128.27571 c -2.404504,-0.46891 -3.972725,-2.80045 -3.503817,-5.20747 0.471862,-2.40708 2.797796,-3.9753 5.204883,-3.50381 2.401845,0.46891 3.970067,2.80045 3.501158,5.20747 -0.468908,2.40184 -2.80038,3.97272 -5.202224,3.50381 z m 1.062834,-5.44716 14.848741,2.90465 15.083269,3.21198 15.260346,3.50899 15.401019,3.7904 31.015669,8.35957 31.03657,9.31828 30.70301,10.16482 30.01279,10.89957 14.64553,5.69204 14.34077,5.83263 13.99436,5.96296 13.5931,6.07498 -0.90133,2.02414 -13.58794,-6.06974 0.0148,0.007 -13.97605,-5.95248 0.0148,0.005 -14.32253,-5.82487 0.0148,0.005 -14.62736,-5.68421 0.0222,0.007 -29.98673,-10.88916 0.0295,0.007 -30.67178,-10.15441 0.0295,0.007 -31.00525,-9.30787 0.0295,0.007 -30.989672,-8.3544 0.02215,0.005 -15.380195,-3.78258 0.01477,0.005 -15.244691,-3.5064 0.01477,0.005 -15.062371,-3.2094 0.01477,0.005 -14.840175,-2.90494 0.424602,-2.17787" />
    <path
       inkscape:connector-curvature="0"
       id="path21611"
       style="fill:none;stroke:#040606;stroke-width:2.2179575;stroke-linecap:butt;stroke-linejoin:miter;stroke-miterlimit:8;stroke-dasharray:none;stroke-opacity:1"
       d="M 5.2590794,199.34414 H 288.05256" />
    <path
       inkscape:connector-curvature="0"
       id="path21613"
       style="fill:#344ea8;fill-opacity:1;fill-rule:nonzero;stroke:none;stroke-width:0.26050466"
       d="m 247.15638,192.69104 13.30401,6.6585 -13.30401,6.6585 z M 37.642952,203.78593 c -2.448736,0 -4.433806,-1.98766 -4.433806,-4.43639 0,-2.4514 1.98507,-4.43905 4.433806,-4.43905 2.448735,0 4.433805,1.98765 4.433805,4.43905 0,2.44873 -1.98507,4.43639 -4.433805,4.43639 z m 0,-5.54878 211.732958,0.003 v 2.21953 H 37.642952 v -2.22211" />
    <path
       inkscape:connector-curvature="0"
       id="path21615"
       style="fill:#040606;fill-opacity:1;fill-rule:nonzero;stroke:none;stroke-width:0.26050466"
       d="m 227.97498,110.90278 c -1.19834,-2.13874 -0.44011,-4.84275 1.69582,-6.04368 2.13616,-1.19833 4.83759,-0.43789 6.03593,1.69849 1.20092,2.13615 0.44011,4.84275 -1.69332,6.04109 -2.13608,1.20092 -4.84017,0.44306 -6.03843,-1.6959 z m 4.83234,-2.71443 5.20747,9.28181 4.66826,10.08153 4.0795,10.76141 3.47775,11.36582 2.85252,11.88162 2.20645,12.32705 1.53957,12.697 0.84928,12.95229 -2.2117,0.14621 -0.84928,-12.92105 0.007,0.0591 -1.53433,-12.63187 0.007,0.0591 -2.19604,-12.26457 0.0148,0.0591 -2.83693,-11.82173 0.0148,0.0665 -3.45427,-11.29545 0.0222,0.0665 -4.05609,-10.68853 0.0295,0.0738 -4.63178,-10.00858 0.0369,0.0783 -5.18657,-9.24532 1.93293,-1.08632" />
    <path
       inkscape:connector-curvature="0"
       id="path21619"
       style="fill:#344ea8;fill-opacity:1;fill-rule:nonzero;stroke:none;stroke-width:0.26050466"
       d="m 112.32652,209.82679 h -1.64901 l -0.12479,0.55974 c -0.12259,0.72958 -0.29686,1.42496 -0.52651,2.09185 -0.22892,0.66976 -0.58337,1.46144 -1.06025,2.37843 -0.47703,0.917 -1.25306,2.25335 -2.32889,4.01179 l -0.68527,-9.04218 h -3.00101 l -0.1248,0.55974 c 0.36701,0.0295 0.62767,0.11446 0.78932,0.25255 0.15876,0.14104 0.27617,0.34632 0.34411,0.62029 0.0665,0.27617 0.1248,0.63284 0.17206,1.0759 l 0.8701,8.6305 h 1.53425 c 1.04467,-1.6047 1.92253,-3.02967 2.63113,-4.2749 0.71112,-1.24515 1.2713,-2.37577 1.68283,-3.39437 l 0.12775,0.0148 c 0.0148,0.32787 0.0443,0.79449 0.0834,1.3989 0.0443,0.60404 0.0834,1.09149 0.12258,1.46661 l 0.46891,4.7907 h 1.36249 c 0.6646,-0.90134 1.23999,-1.71414 1.72714,-2.43574 0.48958,-0.72146 0.92999,-1.39107 1.32335,-2.0059 0.39359,-0.61512 0.73475,-1.17744 1.02377,-1.69065 0.29169,-0.51026 0.56491,-1.02377 0.8258,-1.54216 0.25772,-0.51321 0.46891,-0.95605 0.62767,-1.32077 0.16172,-0.367 0.37513,-0.89092 0.64318,-1.57088 l -0.31014,-0.57302 h -2.95412 l -0.11446,0.56047 c 0.367,0.0221 0.62546,0.099 0.7789,0.22892 0.1536,0.13291 0.22892,0.37808 0.22892,0.73474 0,0.79456 -0.31236,1.82616 -0.93258,3.08955 -0.6225,1.26347 -1.52915,2.74316 -2.71966,4.43905 l -0.83621,-9.05259 v 0" />
    <path
       inkscape:connector-curvature="0"
       id="path21621"
       style="fill:#3ab856;fill-opacity:1;fill-rule:nonzero;stroke:none;stroke-width:0.26050466"
       d="m 4.7667625,171.90776 c 0.4999228,-0.20307 0.9925351,-0.47703 1.4770245,-0.82055 0.4844156,-0.34411 0.9534717,-0.74767 1.4041406,-1.21134 0.4504474,-0.45857 0.8726865,-0.95347 1.2686372,-1.47709 0.3987567,-0.52134 0.7606654,-1.06025 1.0889012,-1.61512 0.327867,-0.55235 0.609212,-1.09414 0.846694,-1.62035 0.237038,-0.52651 0.419433,-1.02902 0.549398,-1.50051 0.129965,-0.47408 0.195686,-0.89351 0.195686,-1.26347 0,-0.47924 -0.122581,-0.86486 -0.367004,-1.14879 -0.245162,-0.28651 -0.640965,-0.42977 -1.19051,-0.42977 -0.2813454,0 -0.5730286,0.0517 -0.8701024,0.1691 -0.2968522,0.11446 -0.5863201,0.27101 -0.864859,0.46079 -0.2791297,0.18978 -0.5420138,0.41131 -0.7893168,0.66459 -0.2503306,0.25255 -0.4637393,0.51322 -0.6461336,0.79191 l 0.6513026,0.58115 c 0.2894679,-0.40393 0.5708129,-0.72958 0.8414506,-0.97947 0.2710069,-0.24516 0.5678591,-0.36995 0.8883414,-0.36995 0.2525459,0 0.4349402,0.0738 0.5545672,0.22374 0.1174117,0.14621 0.1772253,0.35962 0.1772253,0.6358 0,0.63284 -0.1070736,1.26347 -0.3153132,1.88863 -0.2082397,0.62767 -0.4822003,1.22182 -0.8179683,1.78968 -0.3359894,0.56564 -0.7140699,1.0889 -1.1332075,1.57346 -0.419433,0.48737 -0.8387922,0.90658 -1.2582252,1.26081 -0.419433,0.35667 -0.8205528,0.6358 -1.2035069,0.83621 -0.3802958,0.20307 -0.6985627,0.30497 -0.9508872,0.30497 -0.1070735,0 -0.1772252,-0.1019 -0.2163624,-0.2998 -0.036922,-0.1979 -0.059075,-0.45857 -0.059075,-0.77891 0,-0.32048 0.022153,-0.68748 0.066459,-1.10714 0.044306,-0.41426 0.1041198,-0.84137 0.1720561,-1.27646 l 0.6409646,-4.14722 c 0.014769,-0.0834 0.029537,-0.17427 0.036922,-0.27322 0.00738,-0.099 0.014769,-0.20307 0.014769,-0.31015 0,-0.18461 -0.014769,-0.36995 -0.059075,-0.55752 -0.036922,-0.18461 -0.1092889,-0.35962 -0.2134087,-0.51321 C 4.5844421,161.22979 4.441185,161.105 4.2595292,161.00826 4.0741811,160.91448 3.8371424,160.865 3.5506283,160.865 c -0.3441123,0 -0.6801017,0.0591 -1.0081161,0.17945 -0.3278666,0.11741 -0.6409645,0.27322 -0.9404751,0.4689 -0.2968523,0.19569 -0.5781973,0.41131 -0.84661966,0.65131 -0.26583782,0.2422 -0.51838375,0.48441 -0.7554224793601,0.72957 L 0.54939313,163.5352 c 0.13808798,-0.13809 0.2865141,-0.2843 0.44527836,-0.44011 0.16171801,-0.15877 0.32565131,-0.30202 0.49770751,-0.44011 0.1720561,-0.14104 0.3441123,-0.25255 0.5102609,-0.33894 0.1691024,-0.0886 0.3256513,-0.13292 0.4689084,-0.13292 0.185348,0 0.3123594,0.0783 0.3884186,0.22891 0.078275,0.1536 0.1174117,0.34928 0.1174117,0.58632 0,0.0753 -0.00738,0.19569 -0.029537,0.36184 -0.014769,0.16172 -0.044306,0.33377 -0.073844,0.51838 l -0.4822003,3.173 c -0.083444,0.50509 -0.1513798,1.00553 -0.2060243,1.50309 -0.051691,0.49475 -0.078274,0.96388 -0.078274,1.3989 0,0.3286 0.014769,0.62767 0.059075,0.90392 0.036922,0.27618 0.1019045,0.51617 0.1956862,0.71628 0.090828,0.20308 0.2082396,0.35962 0.3566657,0.46891 0.1513799,0.10929 0.3359895,0.16689 0.557521,0.16689 0.4947538,0 0.9924613,-0.1019 1.4926794,-0.30202 v 0" />
    <path
       inkscape:connector-curvature="0"
       id="path21623"
       style="fill:#3ab856;fill-opacity:1;fill-rule:nonzero;stroke:none;stroke-width:0.26050466"
       d="m 281.19084,161.67515 h -1.97983 l -1.0889,4.96001 c -0.15876,0.71112 -0.36479,1.30778 -0.61733,1.79492 -0.25255,0.48442 -0.58632,0.98471 -1.00295,1.50051 -0.41426,0.51617 -0.80756,0.90134 -1.17751,1.15662 -0.37218,0.25771 -0.71629,0.38546 -1.03677,0.38546 -0.3958,0 -0.68232,-0.11741 -0.85711,-0.35149 -0.17722,-0.23187 -0.26584,-0.61217 -0.26584,-1.14104 0,-0.13513 0.0148,-0.30719 0.0443,-0.51321 0.0295,-0.20603 0.0665,-0.45341 0.1248,-0.73475 0.0591,-0.28135 0.15064,-0.67493 0.28134,-1.1801 l 0.50288,-1.98241 c 0.23704,-0.90134 0.35445,-1.65418 0.35445,-2.256 0,-0.55752 -0.14104,-1.00288 -0.42239,-1.33111 -0.2843,-0.32861 -0.66976,-0.48959 -1.15661,-0.48959 -0.37513,0 -0.71112,0.0517 -1.01336,0.15138 -0.30202,0.10412 -0.61734,0.27913 -0.94306,0.5206 -0.32861,0.24738 -0.81797,0.69783 -1.46661,1.35459 l 0.65351,0.64097 c 0.45562,-0.51026 0.81539,-0.86486 1.08108,-1.06025 0.26288,-0.19273 0.51321,-0.28947 0.75025,-0.28947 0.21341,0 0.36996,0.0665 0.46891,0.20602 0.099,0.13514 0.14842,0.35667 0.14842,0.6646 0,0.34116 -0.10411,0.92999 -0.31014,1.76361 l -0.74243,3.0036 c -0.22153,0.88317 -0.33303,1.5683 -0.33303,2.0502 0,0.72441 0.18978,1.29212 0.57303,1.70107 0.38029,0.40909 0.9274,0.61216 1.63593,0.61216 0.71112,0 1.40156,-0.25033 2.07886,-0.75542 0.67493,-0.50509 1.39107,-1.28688 2.14656,-2.34979 l 0.13809,0.0443 c -0.18535,0.48737 -0.27618,0.94048 -0.27618,1.35201 0,0.51838 0.14031,0.93781 0.42461,1.25047 0.28134,0.31236 0.65868,0.46669 1.1332,0.46669 0.5494,0 1.06801,-0.15138 1.55781,-0.45561 0.48737,-0.30719 1.07849,-0.83104 1.77403,-1.57088 l -0.65352,-0.64097 c -0.47186,0.52651 -0.83879,0.8831 -1.09931,1.07066 -0.25772,0.18757 -0.50288,0.27913 -0.7318,0.27913 -0.2134,0 -0.36995,-0.0665 -0.4689,-0.20602 -0.099,-0.13514 -0.14843,-0.35667 -0.14843,-0.6646 0,-0.3958 0.0834,-0.96122 0.25033,-1.69582 l 1.67242,-7.26291 v 0" />
    <path
       inkscape:connector-curvature="0"
       id="path21625"
       style="fill:#3ab856;fill-opacity:1;fill-rule:nonzero;stroke:none;stroke-width:0.26050466"
       d="m 291.18642,155.60016 h -1.42238 l -0.10708,0.42756 c -0.0517,0.31531 -0.11741,0.62028 -0.19273,0.91965 -0.0753,0.29685 -0.16689,0.59887 -0.27618,0.9065 -0.10929,0.31015 -0.24516,0.63285 -0.40392,0.97172 -0.16172,0.33894 -0.3515,0.7089 -0.57082,1.10714 -0.22153,0.3958 -0.47407,0.83362 -0.76583,1.31036 -0.29168,0.47703 -0.62546,1.00811 -1.00561,1.59428 l -0.6956,-7.23684 h -2.57368 l -0.13292,0.57081 c 0.24221,0.0295 0.43272,0.0739 0.57081,0.1248 0.13513,0.0517 0.24221,0.1403 0.31531,0.26288 0.0753,0.12258 0.13071,0.28947 0.16394,0.50509 0.0369,0.21858 0.0783,0.5051 0.12479,0.86228 l 0.83628,6.7288 h 1.29988 c 0.81021,-1.17744 1.51092,-2.27417 2.1075,-3.29794 0.59666,-1.02119 1.09149,-1.98507 1.48227,-2.88641 l 0.72145,6.18435 h 1.13845 c 0.7318,-0.90392 1.36501,-1.73496 1.90687,-2.49304 0.53906,-0.76067 1.01078,-1.48486 1.41456,-2.16474 0.40392,-0.67714 0.75542,-1.33384 1.055,-1.96424 0.29981,-0.63063 0.57598,-1.26864 0.82321,-1.91728 l -0.31014,-0.51617 h -2.51128 l -0.10708,0.57081 c 0.32566,0.0295 0.55236,0.0989 0.67715,0.20602 0.12258,0.10708 0.18535,0.28947 0.18535,0.55236 0,0.59887 -0.25033,1.40148 -0.75284,2.40184 -0.49992,1.00029 -1.23998,2.16998 -2.21952,3.5064 l -0.77625,-7.23684 v 0" />
    <path
       inkscape:connector-curvature="0"
       id="path21627"
       style="fill:#040606;fill-opacity:1;fill-rule:nonzero;stroke:none;stroke-width:0.26050466"
       d="m 266.02944,220.82532 c -0.39063,0.46595 -0.69561,0.81021 -0.91692,1.02643 -0.22153,0.21857 -0.39063,0.35445 -0.50804,0.41131 -0.11963,0.0591 -0.23187,0.0857 -0.33894,0.0857 -0.22154,0 -0.35445,-0.15877 -0.39876,-0.4822 h -0.80239 l -0.45857,2.0736 c 0.22892,0.0938 0.52134,0.13809 0.88052,0.13809 0.3958,0 0.71628,-0.0443 0.95605,-0.14326 0.24221,-0.096 0.48959,-0.26066 0.74501,-0.4977 0.2555,-0.23704 0.58115,-0.60183 0.97171,-1.09932 0.39359,-0.4977 0.99512,-1.31552 1.80534,-2.45139 h 0.11446 c 0.0517,0.51838 0.1979,1.26605 0.43494,2.24301 0.1307,0.55235 0.27617,0.95605 0.44527,1.2165 0.16689,0.25772 0.36479,0.44823 0.59371,0.56786 0.22891,0.11741 0.51026,0.17722 0.83879,0.17722 0.59371,0 1.10714,-0.16393 1.53699,-0.48958 0.43272,-0.32344 0.9144,-0.88051 1.44837,-1.67766 l -0.74243,-0.49254 c -0.367,0.56491 -0.64835,0.92999 -0.84137,1.0889 -0.19569,0.16172 -0.39581,0.24 -0.60183,0.24 -0.11446,0 -0.21636,-0.0222 -0.30498,-0.0591 -0.0856,-0.0443 -0.17205,-0.11446 -0.25771,-0.21636 -0.0834,-0.10412 -0.16172,-0.25772 -0.23409,-0.46596 -0.0738,-0.20602 -0.15654,-0.48441 -0.25033,-0.84137 -0.096,-0.35445 -0.20602,-0.7998 -0.32565,-1.33384 -0.12258,-0.53685 -0.25254,-1.16962 -0.39063,-1.90163 l 0.77883,-0.9743 c 0.28134,-0.35149 0.55752,-0.68748 0.8258,-1.00819 0.26583,-0.32048 0.50509,-0.5937 0.71923,-0.81538 0.21341,-0.22153 0.37735,-0.36996 0.48737,-0.44528 0.10929,-0.0783 0.20603,-0.12479 0.28135,-0.14842 0.0753,-0.0222 0.14842,-0.0369 0.21636,-0.0369 0.22153,0 0.35667,0.16172 0.40097,0.4822 h 0.80232 l 0.45857,-2.0736 c -0.22892,-0.0908 -0.52651,-0.13809 -0.8831,-0.13809 -0.39876,0 -0.71629,0.0517 -0.95606,0.14326 -0.23999,0.0967 -0.48958,0.25771 -0.75025,0.49253 -0.25772,0.23483 -0.5782,0.58854 -0.95606,1.06808 -0.37808,0.47703 -0.93257,1.22957 -1.66466,2.26117 h -0.11446 c -0.0738,-0.4822 -0.14621,-0.94564 -0.23482,-1.39373 -0.0886,-0.44306 -0.18239,-0.82055 -0.28135,-1.12013 -0.099,-0.30202 -0.20307,-0.54202 -0.31014,-0.71924 -0.10707,-0.17427 -0.22892,-0.31753 -0.36479,-0.42977 -0.13809,-0.10929 -0.29685,-0.19052 -0.47703,-0.24516 -0.17722,-0.0517 -0.38546,-0.0805 -0.6225,-0.0805 -0.60478,0 -1.12538,0.18239 -1.56822,0.53906 -0.44307,0.35962 -0.90393,0.90133 -1.38591,1.62559 l 0.74509,0.49476 c 0.25254,-0.38325 0.4534,-0.6646 0.60699,-0.84138 0.15065,-0.18239 0.29169,-0.30719 0.42461,-0.38029 0.12775,-0.0739 0.27322,-0.10929 0.43494,-0.10929 0.14325,0 0.26288,0.0295 0.35962,0.0864 0.0938,0.0591 0.18534,0.16172 0.26805,0.31236 0.0834,0.14621 0.18978,0.46079 0.32048,0.94299 0.13071,0.4822 0.2555,1.00295 0.37734,1.55788 0.12258,0.55752 0.24,1.14096 0.35445,1.74272 -0.73984,0.93264 -1.30511,1.63076 -1.69331,2.09709 z m -241.000666,0 c -0.388419,0.46595 -0.695609,0.81021 -0.916919,1.02643 -0.218578,0.21857 -0.390634,0.35445 -0.508046,0.41131 -0.119627,0.0591 -0.231869,0.0857 -0.338943,0.0857 -0.221532,0 -0.35445,-0.15877 -0.400972,-0.4822 h -0.799729 l -0.45857,2.0736 c 0.229654,0.0938 0.523553,0.13809 0.880514,0.13809 0.398757,0 0.716285,-0.0443 0.956056,-0.14326 0.239993,-0.096 0.489585,-0.26066 0.745084,-0.4977 0.2555,-0.23704 0.578198,-0.60183 0.971638,-1.09932 0.393587,-0.4977 0.995119,-1.31552 1.805334,-2.45139 h 0.114458 c 0.05169,0.51838 0.197901,1.26605 0.43494,2.24301 0.12775,0.55235 0.276176,0.95605 0.445278,1.2165 0.166887,0.25772 0.364789,0.44823 0.593705,0.56786 0.229654,0.11741 0.508045,0.17722 0.836207,0.17722 0.596659,0 1.107141,-0.16393 1.539571,-0.48958 0.432725,-0.32344 0.914408,-0.88051 1.448447,-1.67766 l -0.742426,-0.49254 c -0.367004,0.56491 -0.648349,0.92999 -0.844035,1.0889 -0.192733,0.16172 -0.393588,0.24 -0.598874,0.24 -0.114458,0 -0.216362,-0.0222 -0.304975,-0.0591 -0.08861,-0.0443 -0.172056,-0.11446 -0.2555,-0.21636 -0.08566,-0.10412 -0.163933,-0.25772 -0.237038,-0.46596 -0.07384,-0.20602 -0.156549,-0.48441 -0.250331,-0.84137 -0.096,-0.35445 -0.206024,-0.7998 -0.325651,-1.33384 -0.122581,-0.53685 -0.252546,-1.16962 -0.390634,-1.9017 l 0.778904,-0.97423 c 0.281346,-0.35149 0.557521,-0.68748 0.825796,-1.00819 0.265838,-0.32048 0.505092,-0.5937 0.719239,-0.81538 0.213409,-0.22153 0.375127,-0.36996 0.48737,-0.44528 0.109288,-0.0783 0.20307,-0.12479 0.281345,-0.14842 0.07532,-0.0222 0.148426,-0.0369 0.216362,-0.0369 0.221532,0 0.35445,0.16172 0.400972,0.4822 h 0.802387 l 0.455617,-2.0736 c -0.229655,-0.0908 -0.521338,-0.13809 -0.880514,-0.13809 -0.395803,0 -0.716286,0.0517 -0.956056,0.14326 -0.239993,0.0967 -0.489585,0.25771 -0.750254,0.49253 -0.260669,0.23483 -0.578197,0.58854 -0.956056,1.06808 -0.377342,0.47703 -0.932648,1.22957 -1.664662,2.26117 h -0.114458 c -0.07384,-0.4822 -0.148426,-0.94564 -0.234823,-1.39373 -0.08861,-0.44306 -0.182394,-0.82055 -0.281345,-1.12013 -0.09895,-0.30202 -0.200855,-0.54202 -0.307191,-0.71924 -0.107073,-0.17427 -0.228915,-0.31753 -0.367003,-0.42977 -0.138088,-0.10929 -0.296853,-0.19052 -0.477032,-0.24516 -0.17944,-0.0517 -0.385464,-0.0805 -0.622503,-0.0805 -0.604781,0 -1.12538,0.18239 -1.568222,0.53906 -0.443063,0.35962 -0.903996,0.90133 -1.385901,1.62559 l 0.745011,0.49476 c 0.252545,-0.38325 0.453401,-0.6646 0.606996,-0.84138 0.15138,-0.18239 0.294637,-0.30719 0.422387,-0.38029 0.129965,-0.0739 0.276176,-0.10929 0.437894,-0.10929 0.143257,0 0.262884,0.0295 0.356665,0.0864 0.09674,0.0591 0.187564,0.16172 0.271007,0.31236 0.08344,0.14621 0.190517,0.46079 0.320483,0.94299 0.129965,0.4822 0.255499,1.00295 0.377342,1.55788 0.12258,0.55752 0.239992,1.14096 0.35445,1.74272 -0.739841,0.93264 -1.305116,1.63076 -1.693313,2.09709 v 0" />
    <path
       inkscape:connector-curvature="0"
       id="path21629"
       style="fill:#040606;fill-opacity:1;fill-rule:nonzero;stroke:none;stroke-width:0.26050466"
       d="m 282.63921,219.99694 h -1.42496 l -0.10708,0.42755 c -0.0517,0.31532 -0.11741,0.62251 -0.18977,0.917 -0.0753,0.2998 -0.16689,0.60182 -0.27618,0.91175 -0.11224,0.30719 -0.24738,0.63062 -0.40614,0.97171 -0.16172,0.33894 -0.34928,0.70299 -0.57081,1.10455 -0.21858,0.39581 -0.47408,0.83363 -0.76584,1.31036 -0.29168,0.47408 -0.62546,1.00553 -1.00553,1.59429 l -0.69561,-7.23684 h -2.57124 l -0.13514,0.57081 c 0.24517,0.0295 0.43494,0.0738 0.57082,0.12479 0.13513,0.0517 0.2422,0.14031 0.31753,0.26289 0.0738,0.12258 0.12775,0.28947 0.16393,0.50804 0.0369,0.21637 0.0753,0.5051 0.12258,0.85969 l 0.83887,6.7288 h 1.29994 c 0.80756,-1.17744 1.50826,-2.27675 2.10485,-3.29794 0.59666,-1.02118 1.09148,-1.98507 1.48226,-2.88899 l 0.72146,6.18693 h 1.14103 c 0.72958,-0.90133 1.36242,-1.73496 1.90429,-2.49562 0.53906,-0.76067 1.01336,-1.47961 1.41455,-2.16215 0.40393,-0.6801 0.75542,-1.33643 1.05759,-1.96425 0.29686,-0.63062 0.57303,-1.26863 0.82321,-1.91469 l -0.31236,-0.51839 h -2.51128 l -0.10707,0.57081 c 0.3286,0.0295 0.55235,0.099 0.67715,0.20603 0.12479,0.10707 0.18756,0.29168 0.18756,0.5494 0,0.60182 -0.25254,1.40414 -0.75284,2.40184 -0.50287,1.00295 -1.24257,2.17264 -2.22211,3.50906 l -0.77366,-7.23684 v 0" />
    <path
       inkscape:connector-curvature="0"
       id="path21631"
       style="fill:#040606;fill-opacity:1;fill-rule:nonzero;stroke:none;stroke-width:0.26050466"
       d="m 225.66167,95.157944 c -0.39063,0.468908 -0.6956,0.807556 -0.91699,1.023771 -0.22153,0.218578 -0.39063,0.356666 -0.50804,0.416479 -0.11963,0.05169 -0.23187,0.08344 -0.33895,0.08344 -0.22153,0 -0.35445,-0.161718 -0.40097,-0.482201 h -0.80239 l -0.45561,2.073609 c 0.22891,0.09378 0.5206,0.141042 0.88051,0.141042 0.3958,0 0.71629,-0.05169 0.95606,-0.146211 0.24221,-0.09378 0.48958,-0.260669 0.74508,-0.497707 0.2555,-0.237039 0.58115,-0.604781 0.97164,-1.099314 0.39359,-0.497707 0.99512,-1.315601 1.80267,-2.453978 h 0.11446 c 0.0517,0.520599 0.1979,1.268637 0.43494,2.248176 0.13071,0.549398 0.27913,0.953397 0.44824,1.213919 0.16688,0.257715 0.36478,0.448232 0.5937,0.564905 0.22892,0.119627 0.50805,0.17944 0.83628,0.17944 0.59371,0 1.10973,-0.163933 1.53957,-0.487369 0.43273,-0.325651 0.91434,-0.885683 1.44837,-1.677658 l -0.74508,-0.494754 c -0.36479,0.564906 -0.64613,0.929989 -0.83887,1.088901 -0.19568,0.161718 -0.3958,0.242208 -0.60182,0.242208 -0.11446,0 -0.21637,-0.02215 -0.30498,-0.05907 -0.0857,-0.04431 -0.17427,-0.114458 -0.25771,-0.218578 -0.0834,-0.101904 -0.16172,-0.257715 -0.23409,-0.463739 -0.0738,-0.206024 -0.15655,-0.489585 -0.25033,-0.841377 -0.096,-0.356665 -0.20602,-0.802387 -0.3286,-1.336425 -0.12258,-0.533891 -0.25033,-1.167029 -0.38842,-1.904285 l 0.7789,-0.974296 c 0.28135,-0.349281 0.55457,-0.685271 0.82321,-1.005532 0.26806,-0.320482 0.50805,-0.593704 0.72146,-0.815383 0.21341,-0.221532 0.37512,-0.367004 0.48737,-0.445279 0.10929,-0.07532 0.20307,-0.127749 0.27913,-0.148426 0.0783,-0.02215 0.14842,-0.03692 0.21857,-0.03692 0.22154,0 0.35446,0.163934 0.40098,0.484416 h 0.7998 l 0.45857,-2.076194 c -0.22892,-0.09083 -0.52355,-0.138087 -0.88051,-0.138087 -0.39876,0 -0.71629,0.05169 -0.95606,0.14621 -0.23999,0.09378 -0.49254,0.257715 -0.75025,0.489585 -0.26067,0.234823 -0.5782,0.591489 -0.95606,1.065419 -0.37808,0.479246 -0.93257,1.232232 -1.66466,2.26383 h -0.11446 c -0.0738,-0.479246 -0.14843,-0.945644 -0.23408,-1.391144 -0.0886,-0.448232 -0.1824,-0.820552 -0.28135,-1.122795 -0.099,-0.302021 -0.20307,-0.53906 -0.31014,-0.716285 -0.10708,-0.174272 -0.22892,-0.320483 -0.36479,-0.429772 -0.13809,-0.112242 -0.29685,-0.192732 -0.47703,-0.247376 -0.17723,-0.05169 -0.38842,-0.08049 -0.62251,-0.08049 -0.60404,0 -1.12538,0.17944 -1.56822,0.53906 -0.44306,0.359619 -0.90651,0.901338 -1.3859,1.628183 l 0.74508,0.492538 c 0.25033,-0.383249 0.45341,-0.661641 0.60405,-0.844035 0.15359,-0.177225 0.29463,-0.304975 0.4246,-0.375127 0.1307,-0.07384 0.27322,-0.109289 0.43494,-0.109289 0.14621,0 0.26584,0.02954 0.36183,0.08566 0.0938,0.05907 0.1824,0.161718 0.26806,0.307191 0.0834,0.151379 0.18978,0.466693 0.32048,0.948228 0.1307,0.479247 0.2555,0.997704 0.37808,1.555225 0.12258,0.559737 0.23999,1.140962 0.35445,1.742789 -0.73984,0.932574 -1.30512,1.630767 -1.69324,2.097017 v 0" />
    <path
       inkscape:connector-curvature="0"
       id="path21633"
       style="fill:#040606;fill-opacity:1;fill-rule:nonzero;stroke:none;stroke-width:0.26050466"
       d="m 249.58117,99.656806 c -0.367,0.588534 -0.81272,1.088904 -1.33635,1.500504 -0.20824,0.15138 -0.40393,0.26584 -0.59149,0.33599 -0.18756,0.0738 -0.3803,0.10708 -0.58337,0.10708 -0.40392,0 -0.69561,-0.1536 -0.87793,-0.46596 -0.17944,-0.31236 -0.271,-0.78932 -0.271,-1.430132 0,-0.38325 0.0369,-0.778905 0.10412,-1.190511 0.0665,-0.41131 0.16688,-0.817968 0.30202,-1.20875 0.13292,-0.390634 0.29464,-0.76325 0.48958,-1.114968 0.19274,-0.346327 0.41131,-0.658687 0.66164,-0.92482 0.25033,-0.268053 0.52651,-0.479247 0.82846,-0.632842 0.30202,-0.153595 0.63062,-0.231869 0.97946,-0.231869 0.4822,0 0.83363,0.101904 1.05508,0.30719 0.22375,0.206024 0.33378,0.544229 0.33378,1.021186 0,0.265838 -0.0222,0.549399 -0.0739,0.846694 -0.0443,0.296852 -0.11224,0.630626 -0.19568,0.997704 -0.18535,0.802387 -0.46079,1.497922 -0.82838,2.084021 z m 0.37291,0.802384 c -0.0805,0.24516 -0.12479,0.49993 -0.12479,0.7685 0,0.47924 0.11962,0.85961 0.35666,1.1332 0.23704,0.27839 0.57082,0.41648 0.99778,0.41648 0.23704,0 0.46669,-0.0295 0.68527,-0.0938 0.22153,-0.0591 0.44528,-0.16393 0.67198,-0.30497 0.22892,-0.13514 0.46595,-0.31753 0.7089,-0.53389 0.24516,-0.21637 0.51322,-0.47408 0.81014,-0.77891 -0.0938,-0.096 -0.19273,-0.19273 -0.29464,-0.28947 -0.099,-0.0989 -0.1979,-0.1979 -0.29463,-0.2998 -0.1824,0.1979 -0.34633,0.36478 -0.49254,0.50287 -0.14621,0.14031 -0.27913,0.2555 -0.40097,0.34412 -0.12258,0.0886 -0.23409,0.15654 -0.33895,0.19568 -0.10412,0.0443 -0.20824,0.0665 -0.31531,0.0665 -0.17206,0 -0.30497,-0.0517 -0.3958,-0.15359 -0.0938,-0.099 -0.13809,-0.26584 -0.13809,-0.48737 0,-0.16911 0.0148,-0.35962 0.0443,-0.57599 0.0295,-0.21857 0.0834,-0.494749 0.15876,-0.825791 l 1.34418,-5.837947 -0.72145,-0.187563 -0.86228,0.614381 c -0.29685,-0.190517 -0.62546,-0.341159 -0.98471,-0.450448 -0.35962,-0.109288 -0.77107,-0.163933 -1.24257,-0.163933 -0.44306,0 -0.87534,0.07532 -1.28953,0.228916 -0.41427,0.148426 -0.80756,0.361835 -1.17486,0.635795 -0.367,0.273223 -0.70594,0.601828 -1.01594,0.984708 -0.30719,0.38325 -0.57303,0.807556 -0.79714,1.27388 -0.22154,0.468909 -0.39581,0.966468 -0.51617,1.497922 -0.12258,0.531676 -0.1824,1.086243 -0.1824,1.662004 0,0.969056 0.19273,1.706306 0.5782,2.216866 0.38546,0.50509 0.93257,0.76067 1.63859,0.76067 0.31015,0 0.60405,-0.0443 0.89093,-0.13292 0.2843,-0.0886 0.56564,-0.23187 0.84404,-0.42461 0.28134,-0.19273 0.56269,-0.43789 0.84662,-0.73474 0.28356,-0.29685 0.57819,-0.65647 0.88051,-1.08108 z m -13.19456,0.70595 c 0.15359,-0.23704 0.35445,-0.49992 0.59666,-0.78415 0.24516,-0.28651 0.51026,-0.581149 0.7998,-0.883096 0.29168,-0.302021 0.59149,-0.609212 0.90134,-0.919577 0.30719,-0.307191 0.60404,-0.604043 0.88568,-0.888342 0.28134,-0.286514 0.54201,-0.552352 0.7789,-0.802313 0.23704,-0.250331 0.42978,-0.471862 0.5782,-0.661641 0.19569,-0.218578 0.35962,-0.427556 0.48959,-0.622503 0.1307,-0.195687 0.23704,-0.390634 0.31752,-0.583367 0.0783,-0.192732 0.13514,-0.388418 0.16911,-0.588535 0.0295,-0.200855 0.0443,-0.414264 0.0443,-0.648349 0,-0.38325 -0.0591,-0.745084 -0.18239,-1.075905 -0.12258,-0.333774 -0.31753,-0.617334 -0.59149,-0.857031 -0.27322,-0.237039 -0.62767,-0.424603 -1.06283,-0.562691 -0.4379,-0.140303 -0.96389,-0.213408 -1.5813,-0.213408 -0.51026,0 -1.08631,0.07384 -1.72447,0.216362 -0.63801,0.143257 -1.33643,0.372912 -2.09709,0.685271 v 1.737546 h 1.16695 c 0.20824,-0.570813 0.49771,-1.005532 0.87261,-1.305116 0.37513,-0.299806 0.83629,-0.450448 1.38856,-0.450448 0.32049,0 0.60405,0.05169 0.85179,0.153595 0.24516,0.101905 0.44823,0.239993 0.60921,0.41648 0.15877,0.17944 0.28356,0.395803 0.36996,0.651302 0.0857,0.257715 0.12775,0.533891 0.12775,0.838792 0,0.296853 -0.0369,0.575982 -0.10929,0.838866 -0.0753,0.260669 -0.21341,0.547183 -0.41426,0.854448 -0.20307,0.310144 -0.47925,0.66164 -0.82838,1.055006 -0.3515,0.395803 -0.80497,0.872687 -1.36242,1.432793 -0.367,0.364788 -0.70373,0.721454 -1.00819,1.062834 -0.30202,0.344112 -0.57081,0.674933 -0.81014,0.995117 -0.23704,0.32048 -0.45045,0.6358 -0.64097,0.94831 -0.18756,0.31235 -0.35445,0.62767 -0.4977,0.94822 v 0.46374 h 7.54115 c 0.0295,-0.42238 0.0591,-0.84669 0.0857,-1.27388 0.0295,-0.42755 0.0517,-0.85186 0.0834,-1.27388 h -0.82838 c -0.1019,0.2555 -0.18977,0.45562 -0.26805,0.60183 -0.0753,0.14547 -0.1691,0.2555 -0.27913,0.32565 -0.10929,0.0739 -0.24738,0.11741 -0.41426,0.13809 -0.16689,0.0221 -0.39064,0.0295 -0.66681,0.0295 h -3.29536 v 0" />
    <path
       inkscape:connector-curvature="0"
       id="path21635"
       style="fill:#040606;fill-opacity:1;fill-rule:nonzero;stroke:none;stroke-width:0.26050466"
       d="m 133.32837,131.5634 v -1.52392 h -14.10373 v 1.52392 z m 0,-4.75414 v -1.52399 h -14.10373 v 1.52399 z m -36.027744,0.22892 c 0.174272,-0.47408 0.262884,-0.91958 0.262884,-1.3416 0,-0.511 -0.140303,-0.92482 -0.419433,-1.24264 -0.27913,-0.31753 -0.656472,-0.47703 -1.13845,-0.47703 -0.581151,0 -1.11231,0.16393 -1.596873,0.48736 -0.484416,0.32566 -1.062835,0.8388 -1.734961,1.54216 l 0.653518,0.64318 c 0.45857,-0.51617 0.817968,-0.86744 1.081073,-1.06284 0.262885,-0.19568 0.513215,-0.29168 0.750254,-0.29168 0.213409,0 0.369957,0.0738 0.468908,0.20603 0.09895,0.13808 0.148426,0.35962 0.148426,0.66459 0,0.39876 -0.08344,0.96388 -0.25033,1.69848 l -1.672416,7.2655 h 1.979828 l 1.088901,-4.96526 c 0.158764,-0.70078 0.356666,-1.29729 0.593704,-1.78444 0.237039,-0.48958 0.565644,-1.00036 0.984708,-1.53174 0.419433,-0.52872 0.815384,-0.91699 1.185341,-1.15669 0.369962,-0.23999 0.700782,-0.35962 0.989872,-0.35962 0.41132,0 0.71629,0.11446 0.91183,0.34928 0.19568,0.23187 0.29168,0.6225 0.29168,1.17493 0,0.24516 -0.0295,0.53685 -0.0857,0.87527 -0.0591,0.34116 -0.16688,0.86486 -0.32786,1.57605 l -1.31561,5.82229 h 1.97983 l 1.04209,-5.00949 c 0.15359,-0.71112 0.35666,-1.31036 0.61216,-1.80533 0.2555,-0.49254 0.58632,-0.99254 0.98988,-1.50051 0.40392,-0.50805 0.78931,-0.8831 1.15661,-1.1228 0.36701,-0.23999 0.71112,-0.35962 1.0316,-0.35962 0.39581,0 0.68232,0.11446 0.85711,0.34929 0.17722,0.23186 0.26288,0.61216 0.26288,1.13845 0,0.2134 -0.0221,0.49475 -0.0834,0.8362 -0.0591,0.34412 -0.17944,0.87527 -0.36184,1.59429 l -0.50287,1.97983 c -0.25255,0.96647 -0.37808,1.69331 -0.37808,2.19087 0,0.5494 0.14842,1.00295 0.44528,1.35718 0.29685,0.35666 0.6956,0.53389 1.19051,0.53389 0.62545,0 1.18268,-0.16689 1.67241,-0.49476 0.48737,-0.3286 1.06025,-0.83879 1.71672,-1.53432 l -0.65352,-0.64097 c -0.47186,0.52651 -0.83879,0.8831 -1.09931,1.07066 -0.25771,0.18757 -0.50288,0.28135 -0.73179,0.28135 -0.21341,0 -0.36996,-0.0665 -0.46891,-0.20602 -0.099,-0.13809 -0.14843,-0.35962 -0.14843,-0.66681 0,-0.34412 0.10191,-0.92999 0.31015,-1.76362 l 0.74242,-3.00101 c 0.22154,-0.88834 0.33378,-1.57081 0.33378,-2.05279 0,-0.73179 -0.19273,-1.30253 -0.57303,-1.7063 -0.38325,-0.40615 -0.92482,-0.607 -1.62552,-0.607 -0.70374,0 -1.38074,0.2267 -2.03197,0.68232 -0.6513,0.4534 -1.3077,1.1462 -1.96417,2.07885 0.007,-0.0591 0.007,-0.11741 0.007,-0.17206 v -0.16172 c 0,-0.78673 -0.19052,-1.3859 -0.57082,-1.80533 -0.38325,-0.41648 -0.94047,-0.6225 -1.67249,-0.6225 -0.7089,0 -1.41189,0.25254 -2.107424,0.76066 -0.692656,0.511 -1.391145,1.28429 -2.091923,2.33413 l -0.138088,-0.0443 v 0" />
    <path
       inkscape:connector-curvature="0"
       id="path21637"
       style="fill:#040606;fill-opacity:1;fill-rule:nonzero;stroke:none;stroke-width:0.26050466"
       d="m 144.06379,132.04538 c -0.38842,0.46669 -0.69266,0.81014 -0.91434,1.02635 -0.22153,0.21858 -0.39063,0.35445 -0.51026,0.41131 -0.11741,0.0591 -0.22891,0.0857 -0.33599,0.0857 -0.22153,0 -0.35666,-0.16171 -0.40097,-0.4822 h -0.80298 l -0.45857,2.07361 c 0.22892,0.0916 0.52356,0.13809 0.8831,0.13809 0.3958,0 0.71629,-0.0517 0.95606,-0.14326 0.23999,-0.096 0.48737,-0.26067 0.74508,-0.4977 0.2555,-0.23704 0.5782,-0.60405 0.97164,-1.09932 0.39359,-0.49771 0.99253,-1.31553 1.80268,-2.45132 h 0.11445 c 0.0517,0.51839 0.19791,1.26605 0.43494,2.24552 0.12997,0.5494 0.27913,0.95347 0.44528,1.21399 0.1691,0.25772 0.36701,0.44823 0.59666,0.56786 0.22892,0.11446 0.50805,0.17723 0.83628,0.17723 0.59371,0 1.10714,-0.16394 1.53957,-0.48959 0.43273,-0.3227 0.91434,-0.88051 1.44838,-1.67766 l -0.74502,-0.49253 c -0.367,0.5649 -0.64613,0.92998 -0.84145,1.0889 -0.19273,0.16171 -0.3958,0.23925 -0.60182,0.23925 -0.11446,0 -0.21341,-0.0221 -0.30202,-0.0591 -0.0886,-0.0443 -0.17428,-0.11446 -0.25772,-0.21637 -0.0834,-0.10412 -0.16172,-0.25771 -0.23408,-0.46669 -0.0739,-0.20602 -0.15655,-0.48442 -0.25255,-0.84145 -0.0938,-0.35445 -0.20307,-0.79973 -0.32565,-1.33377 -0.12258,-0.53389 -0.25255,-1.16968 -0.38842,-1.9017 l 0.77632,-0.97429 c 0.28356,-0.3515 0.55752,-0.68749 0.8258,-1.00812 0.26583,-0.32048 0.50804,-0.5937 0.72145,-0.81538 0.21341,-0.22154 0.37513,-0.36996 0.48737,-0.44824 0.10929,-0.0753 0.20307,-0.12258 0.27839,-0.14621 0.0753,-0.0222 0.14843,-0.0369 0.21858,-0.0369 0.22153,0 0.35445,0.16172 0.39875,0.4822 h 0.80232 l 0.45857,-2.07361 c -0.22892,-0.0908 -0.52355,-0.13809 -0.8831,-0.13809 -0.3958,0 -0.71407,0.0517 -0.9534,0.14326 -0.24221,0.096 -0.49254,0.25772 -0.75025,0.49254 -0.26067,0.23482 -0.5782,0.58854 -0.95606,1.06542 -0.37734,0.47925 -0.93523,1.23223 -1.66724,2.26641 h -0.11446 c -0.0665,-0.48441 -0.14621,-0.94822 -0.23482,-1.39631 -0.0857,-0.44306 -0.17945,-0.82055 -0.2784,-1.12014 -0.1019,-0.30202 -0.20307,-0.54201 -0.31014,-0.71924 -0.10707,-0.17427 -0.22892,-0.31752 -0.367,-0.42977 -0.13514,-0.10929 -0.29464,-0.19051 -0.47408,-0.2422 -0.17944,-0.0517 -0.38842,-0.0834 -0.62546,-0.0834 -0.60183,0 -1.12538,0.1824 -1.56822,0.53906 -0.44306,0.35962 -0.904,0.90134 -1.38332,1.62553 l 0.74243,0.49475 c 0.25254,-0.38325 0.45562,-0.66164 0.607,-0.84145 0.15359,-0.18239 0.29463,-0.30719 0.4246,-0.3803 0.12996,-0.0665 0.27322,-0.10707 0.43494,-0.10707 0.14325,0 0.26584,0.0295 0.35962,0.0834 0.0967,0.0591 0.18534,0.16172 0.26805,0.31015 0.0857,0.14842 0.19273,0.46374 0.32048,0.94823 0.12997,0.47924 0.25772,0.99777 0.3803,1.55522 0.11963,0.55752 0.23999,1.14104 0.35445,1.74279 -0.73984,0.93257 -1.30512,1.63077 -1.6959,2.09709 v 0" />
    <path
       inkscape:connector-curvature="0"
       id="path21639"
       style="fill:#040606;fill-opacity:1;fill-rule:nonzero;stroke:none;stroke-width:0.26050466"
       d="m 158.56347,137.17214 c -0.367,0.58632 -0.8128,1.08624 -1.33377,1.49526 -0.20824,0.15655 -0.40614,0.26805 -0.59149,0.33894 -0.19051,0.0738 -0.38325,0.10708 -0.58632,0.10708 -0.40097,0 -0.69561,-0.15655 -0.87527,-0.46891 -0.18239,-0.31015 -0.27322,-0.78932 -0.27322,-1.43021 0,-0.37808 0.0369,-0.77366 0.10412,-1.19051 0.0665,-0.41131 0.1691,-0.81273 0.30202,-1.20609 0.13513,-0.39064 0.29685,-0.76333 0.48959,-1.11239 0.19273,-0.35149 0.41426,-0.65868 0.66459,-0.9274 0.24738,-0.26805 0.52355,-0.47703 0.8258,-0.63284 0.30497,-0.1536 0.63062,-0.23187 0.97946,-0.23187 0.4822,0 0.83362,0.1019 1.05767,0.30719 0.22153,0.20602 0.33377,0.54423 0.33377,1.02119 0,0.26805 -0.0295,0.54939 -0.0738,0.84403 -0.0443,0.29685 -0.11225,0.63063 -0.19569,1.00036 -0.18461,0.80232 -0.46079,1.49527 -0.82845,2.08661 z m 0.37513,0.79972 c -0.0834,0.24517 -0.1248,0.49993 -0.1248,0.76584 0,0.4822 0.11741,0.85969 0.35667,1.13845 0.23703,0.27322 0.56786,0.41426 0.99777,0.41426 0.23704,0 0.46374,-0.0295 0.68527,-0.0938 0.21858,-0.0591 0.44307,-0.16393 0.66977,-0.30202 0.22891,-0.1403 0.46669,-0.31753 0.7089,-0.53389 0.24516,-0.21858 0.51617,-0.47925 0.81272,-0.78149 -0.0967,-0.0938 -0.19568,-0.18978 -0.29463,-0.29168 -0.10191,-0.0967 -0.1979,-0.19569 -0.29464,-0.29686 -0.18461,0.19569 -0.34928,0.36479 -0.49475,0.5051 -0.14621,0.13808 -0.27839,0.25254 -0.40098,0.34115 -0.11962,0.0908 -0.23482,0.15655 -0.33894,0.19791 -0.1019,0.0369 -0.20824,0.0591 -0.31531,0.0591 -0.17206,0 -0.30498,-0.0517 -0.3958,-0.15138 -0.0908,-0.1019 -0.13809,-0.26288 -0.13809,-0.48958 0,-0.16689 0.0148,-0.35962 0.0443,-0.57599 0.0295,-0.21636 0.0834,-0.48958 0.16172,-0.82321 l 1.34426,-5.83794 -0.72146,-0.18757 -0.86493,0.61734 c -0.29464,-0.19273 -0.62251,-0.34116 -0.98205,-0.45045 -0.35962,-0.11224 -0.77374,-0.16689 -1.24265,-0.16689 -0.44527,0 -0.87527,0.0783 -1.29212,0.2267 -0.41426,0.1536 -0.80755,0.36479 -1.17485,0.63802 -0.367,0.27322 -0.70595,0.60182 -1.01336,0.9847 -0.31014,0.38325 -0.57598,0.80763 -0.79973,1.27654 -0.22153,0.46374 -0.39359,0.96381 -0.51617,1.49527 -0.11962,0.53167 -0.18239,1.08631 -0.18239,1.662 0,0.96912 0.19569,1.70889 0.5782,2.21428 0.38546,0.50805 0.93257,0.76332 1.63859,0.76332 0.31015,0 0.607,-0.0443 0.89093,-0.13513 0.28651,-0.0886 0.56786,-0.22892 0.84662,-0.42239 0.27913,-0.19273 0.56047,-0.43789 0.84662,-0.73474 0.28356,-0.29686 0.57819,-0.65648 0.88051,-1.07849 l 0.1248,0.0517 v 0" />
    <path
       inkscape:connector-curvature="0"
       id="path21641"
       style="fill:#ee252a;fill-opacity:1;fill-rule:nonzero;stroke:none;stroke-width:0.26050466"
       d="m 61.126966,166.15584 c -0.213409,1.05242 -0.578198,1.98241 -1.094144,2.79004 -0.513215,0.80756 -1.013359,1.42489 -1.497923,1.86257 -0.484415,0.43494 -0.979464,0.6513 -1.484852,0.6513 -0.510999,0 -0.875345,-0.19569 -1.091559,-0.59149 -0.216363,-0.39063 -0.325652,-0.98729 -0.325652,-1.77927 0,-1.06283 0.174272,-2.12832 0.526507,-3.19116 0.351497,-1.06542 0.838792,-1.9147 1.464028,-2.55034 0.627673,-0.6358 1.331183,-0.9534 2.117915,-0.9534 0.601827,0 1.031599,0.1403 1.281634,0.41648 0.252546,0.27322 0.37808,0.70373 0.37808,1.2947 0,0.26584 -0.0074,0.51322 -0.03692,0.74243 -0.02215,0.22891 -0.06646,0.49992 -0.138088,0.81272 z m -0.223747,-4.49893 c -0.429771,-0.11225 -0.893584,-0.16394 -1.391144,-0.16394 -1.107141,0 -2.110088,0.34633 -3.011426,1.04726 -0.898753,0.70077 -1.607285,1.65417 -2.1205,2.86558 -0.516168,1.21133 -0.773661,2.47214 -0.773661,3.78767 0,1.14362 0.228915,2.03455 0.692655,2.66761 0.460785,0.63284 1.112383,0.95081 1.951249,0.95081 0.731793,0 1.42755,-0.24737 2.084021,-0.74501 0.656472,-0.49475 1.349423,-1.27912 2.084021,-2.34712 l 0.148426,0.0443 c -0.177225,0.47408 -0.265838,0.92217 -0.265838,1.3416 0,0.51838 0.143257,0.93782 0.424602,1.2504 0.284299,0.31236 0.659426,0.46595 1.133208,0.46595 0.564905,0 1.088901,-0.15138 1.576049,-0.46078 0.484416,-0.31236 1.068077,-0.83363 1.755785,-1.56564 l -0.651303,-0.64097 c -0.474077,0.52651 -0.841376,0.8831 -1.101897,1.07067 -0.257715,0.18756 -0.502877,0.27913 -0.729577,0.27913 -0.216363,0 -0.372173,-0.0665 -0.471863,-0.20603 -0.09895,-0.13513 -0.148426,-0.35666 -0.148426,-0.66459 0,-0.40393 0.08344,-0.96906 0.252546,-1.6959 l 1.682827,-7.26284 -0.734746,-0.18239 -1.052422,0.75542 c -0.45857,-0.2843 -0.901338,-0.47925 -1.333768,-0.59149 v 0" />
    <path
       inkscape:connector-curvature="0"
       id="path21643"
       style="fill:#3ab856;fill-opacity:1;fill-rule:nonzero;stroke:none;stroke-width:0.26050466"
       d="m 14.420676,137.45193 3.037493,-14.57522 9.823667,11.17567 z m 27.475447,60.73147 c 0.625457,2.36795 -0.789317,4.79586 -3.157341,5.42368 -2.365366,0.6225 -4.793278,-0.7919 -5.415855,-3.15993 -0.627673,-2.37061 0.786732,-4.79844 3.154683,-5.42368 2.368024,-0.62546 4.793277,0.78932 5.418513,3.15993 z m -5.361211,1.41455 -17.320958,-65.70706 2.143982,-0.56786 17.323543,65.70706 -2.146567,0.56786" />
    <path
       inkscape:connector-curvature="0"
       id="path21645"
       style="fill:#040606;fill-opacity:1;fill-rule:nonzero;stroke:none;stroke-width:0.26050466"
       d="m 7.52291,104.53611 c -0.3906339,0.46669 -0.695609,0.80756 -0.9169928,1.02636 -0.2215315,0.21636 -0.3906339,0.35666 -0.5102609,0.41131 -0.1174117,0.0591 -0.2289159,0.0857 -0.3359895,0.0857 -0.2215315,0 -0.3544504,-0.15877 -0.4009721,-0.47925 H 4.558966 l -0.4585703,2.07361 c 0.2289159,0.0908 0.5235528,0.13513 0.880514,0.13513 0.3958029,0 0.7162852,-0.0443 0.9560562,-0.1403 0.239254,-0.096 0.4873693,-0.26288 0.7424259,-0.49992 0.257715,-0.23409 0.581151,-0.60183 0.9742956,-1.09932 0.3935877,-0.4977 0.9951196,-1.31294 1.8052604,-2.45398 h 0.1122426 c 0.051691,0.52134 0.1979015,1.26864 0.4349406,2.2456 0.129965,0.54939 0.279129,0.95864 0.448232,1.2165 0.166887,0.26067 0.367004,0.44823 0.593704,0.56786 0.229655,0.11741 0.508046,0.17427 0.836282,0.17427 0.596658,0 1.109725,-0.15876 1.53957,-0.48442 0.429771,-0.32565 0.914334,-0.88568 1.448373,-1.68024 l -0.74501,-0.49254 c -0.364789,0.56786 -0.646134,0.92741 -0.841451,1.0889 -0.195686,0.15877 -0.393588,0.24221 -0.598874,0.24221 -0.114458,0 -0.216362,-0.0221 -0.304975,-0.0665 -0.08861,-0.0369 -0.172056,-0.11446 -0.257715,-0.21636 -0.08344,-0.10412 -0.161718,-0.25771 -0.234823,-0.46595 -0.07384,-0.20603 -0.156549,-0.48442 -0.252546,-0.84138 -0.09378,-0.35667 -0.203071,-0.79715 -0.325651,-1.33377 -0.122581,-0.53684 -0.250331,-1.16968 -0.388419,-1.9017 l 0.778905,-0.97429 c 0.281345,-0.3515 0.557521,-0.687491 0.823211,-1.010779 0.268053,-0.320482 0.508046,-0.588535 0.721454,-0.810141 0.213409,-0.221531 0.375127,-0.372911 0.48737,-0.448232 0.109289,-0.07532 0.20307,-0.12775 0.279129,-0.15138 0.07827,-0.02215 0.15138,-0.02954 0.218578,-0.02954 0.221532,0 0.354451,0.158764 0.400972,0.479246 h 0.79936 l 0.45857,-2.073609 c -0.229654,-0.09083 -0.521337,-0.135134 -0.880514,-0.135134 -0.398757,0 -0.716285,0.04431 -0.956056,0.140304 -0.242208,0.096 -0.489585,0.260668 -0.750254,0.494753 -0.260668,0.23187 -0.578197,0.58632 -0.956056,1.065419 -0.377342,0.474078 -0.932574,1.232232 -1.664588,2.261173 H 10.568451 C 10.501992,99.973522 10.420025,99.512737 10.331413,99.064652 10.245754,98.61642 10.151972,98.241441 10.052283,97.941857 9.9533323,97.639835 9.8492125,97.399843 9.7421389,97.225571 9.6350654,97.048346 9.513223,96.908043 9.3773504,96.7958 9.2392624,96.686511 9.0804981,96.603068 8.9003192,96.548423 c -0.1794406,-0.05169 -0.3854649,-0.07827 -0.6225036,-0.07827 -0.6018273,0 -1.1253801,0.177225 -1.5682216,0.536845 -0.4430631,0.359619 -0.9039225,0.901337 -1.3859012,1.628182 l 0.7450843,0.492539 c 0.2503306,-0.380296 0.4534012,-0.664595 0.6069964,-0.841451 0.1513798,-0.17944 0.2916831,-0.304975 0.4223867,-0.37808 0.1299652,-0.07532 0.276176,-0.109289 0.4349403,-0.109289 0.1462108,0 0.2658378,0.02954 0.3618348,0.08566 0.093782,0.05908 0.1846096,0.158764 0.2680531,0.310144 0.083443,0.146211 0.1905171,0.463739 0.3204823,0.94306 0.1299651,0.4822 0.2554997,1.002937 0.3780804,1.560387 0.1225808,0.55752 0.2392541,1.13579 0.3544505,1.74021 -0.7398415,0.93257 -1.3051161,1.63335 -1.6932393,2.09701 v 0" />
    <path
       inkscape:connector-curvature="0"
       id="path21647"
       style="fill:#040606;fill-opacity:1;fill-rule:nonzero;stroke:none;stroke-width:0.26050466"
       d="m 19.834303,111.91097 c 0.400972,-0.15655 0.797144,-0.36996 1.185341,-0.63801 0.388419,-0.26584 0.76325,-0.5782 1.122796,-0.9404 0.356665,-0.35962 0.695609,-0.74243 1.013359,-1.14886 0.317528,-0.4091 0.606996,-0.8258 0.870028,-1.25823 0.260668,-0.42977 0.484415,-0.84928 0.674932,-1.25823 0.190518,-0.40909 0.338944,-0.79972 0.443063,-1.1671 0.101905,-0.36995 0.153596,-0.69782 0.153596,-0.98205 0,-0.49253 -0.101905,-0.88575 -0.310144,-1.18268 -0.20824,-0.29168 -0.547183,-0.43789 -1.016018,-0.43789 -0.2267,0 -0.455616,0.0443 -0.69044,0.1403 -0.234085,0.0938 -0.460785,0.22153 -0.680102,0.38325 -0.221531,0.16172 -0.427555,0.34928 -0.622503,0.55752 -0.197902,0.21119 -0.364789,0.43273 -0.508046,0.66164 l 0.523553,0.52872 c 0.23187,-0.29168 0.455617,-0.52872 0.669764,-0.7089 0.213408,-0.18239 0.414264,-0.271 0.604042,-0.271 0.177226,0 0.317529,0.0591 0.421649,0.18461 0.104119,0.12479 0.156549,0.3286 0.156549,0.60699 0,0.47408 -0.08049,0.94823 -0.245162,1.4119 -0.161718,0.46669 -0.375127,0.91175 -0.635795,1.33642 -0.262884,0.4246 -0.557521,0.81797 -0.885683,1.18268 -0.330821,0.36184 -0.659426,0.67494 -0.989951,0.93782 -0.327867,0.26584 -0.640964,0.47408 -0.937817,0.62546 -0.296852,0.15138 -0.53906,0.22891 -0.729577,0.22891 -0.02954,0 -0.05907,-0.0738 -0.08861,-0.2134 -0.02954,-0.14326 -0.04431,-0.32861 -0.04431,-0.55457 0,-0.22375 0.01477,-0.48737 0.05169,-0.78415 0.03692,-0.29685 0.08049,-0.60183 0.132919,-0.90916 l 0.559736,-3.22506 c 0.02215,-0.18978 0.03692,-0.34411 0.03692,-0.45562 0,-0.19051 -0.01477,-0.38325 -0.05169,-0.57819 -0.03692,-0.19791 -0.09378,-0.37735 -0.187563,-0.53906 -0.09083,-0.16394 -0.216362,-0.29686 -0.372173,-0.39876 -0.156549,-0.0989 -0.364788,-0.14843 -0.617334,-0.14843 -0.281345,0 -0.557521,0.0517 -0.828381,0.14843 -0.273222,0.1019 -0.533891,0.23704 -0.784147,0.40614 -0.250331,0.1691 -0.48737,0.35667 -0.708901,0.56491 -0.223747,0.20824 -0.432725,0.41647 -0.627673,0.6225 l 0.489585,0.59887 c 0.112242,-0.1019 0.231869,-0.20824 0.359619,-0.32565 0.12775,-0.11446 0.260669,-0.22375 0.398757,-0.32565 0.135134,-0.099 0.271007,-0.18239 0.403926,-0.25033 0.132919,-0.0591 0.260669,-0.096 0.37808,-0.096 0.112243,0 0.200856,0.0443 0.262884,0.11963 0.05907,0.0805 0.08861,0.23187 0.07532,0.45045 0,0.30719 -0.156549,1.41713 -0.471862,3.32408 -0.06646,0.39358 -0.119627,0.78149 -0.158764,1.16961 -0.04431,0.38325 -0.05907,0.74767 -0.05907,1.08373 0,0.25772 0.01477,0.49254 0.04431,0.70595 0.02954,0.21341 0.08049,0.39876 0.158764,0.55752 0.07532,0.15655 0.187564,0.27839 0.330821,0.36479 0.141041,0.0857 0.320482,0.12775 0.533891,0.12775 0.395803,0 0.797144,-0.0783 1.195753,-0.23409 v 0" />
    <path
       inkscape:connector-curvature="0"
       id="path21649"
       style="fill:#040606;fill-opacity:1;fill-rule:nonzero;stroke:none;stroke-width:0.26050466"
       d="m 258.40262,195.50935 c 2.23776,0.99519 3.24063,3.62108 2.24293,5.86136 -0.99771,2.23776 -3.62101,3.24329 -5.85611,2.243 -2.23518,-1.00036 -3.24071,-3.62366 -2.24301,-5.86135 0.99778,-2.23777 3.62108,-3.2433 5.85619,-2.24301 z M 133.34013,158.12247 c -2.33154,-0.75026 -3.61318,-3.24847 -2.86558,-5.5826 0.74767,-2.33413 3.24588,-3.61842 5.57742,-2.86817 2.33155,0.74767 3.61318,3.24588 2.86559,5.58267 -0.74767,2.33147 -3.2433,3.61835 -5.57743,2.8681 z m 4.34173,-4.75384 15.89599,5.10851 15.71619,5.30125 15.48446,5.4784 15.20821,5.63731 14.88788,5.77799 14.52575,5.90308 14.11931,6.01244 13.65823,6.10363 -0.90134,2.02406 -13.65298,-6.09581 0.0222,0.005 -14.10373,-6.00461 0.0148,0.007 -14.5101,-5.89517 0.0148,0.005 -14.87222,-5.77281 0.0148,0.007 -15.19263,-5.62948 0.0148,0.005 -15.46881,-5.47316 0.0148,0.005 -15.70061,-5.29609 0.0148,0.005 -15.88817,-5.10593 0.67715,-2.11526"
       sodipodi:nodetypes="cccccccccccccccccccccccccccccccccccc" />
    <path
       inkscape:connector-curvature="0"
       id="path21651"
       style="fill:#ee252a;fill-opacity:1;fill-rule:nonzero;stroke:none;stroke-width:0.26050466"
       d="m 35.79787,195.24996 c -2.227278,1.02119 -3.204232,3.6549 -2.18563,5.88477 1.015944,2.22993 3.649658,3.20947 5.87701,2.18829 2.224693,-1.02119 3.204158,-3.65232 2.18563,-5.88226 -1.018602,-2.22728 -3.649658,-3.2094 -5.87701,-2.1908 z m 92.37049,-31.20134 9.32869,-11.59503 -14.86439,-0.51321 z m -1.21399,-7.98702 -89.770599,42.21803 0.919578,2.0163 89.773251,-42.21544 -0.92223,-2.01889"
       sodipodi:nodetypes="cccccccccccccc" />
    <path
       inkscape:connector-curvature="0"
       id="path21653"
       style="fill:#ee252a;fill-opacity:1;fill-rule:nonzero;stroke:none;stroke-width:0.26050466"
       d="m 35.769219,195.26303 c -2.216866,1.04201 -3.170338,3.68356 -2.130912,5.90301 1.039426,2.21952 3.680894,3.17558 5.897834,2.13357 2.216866,-1.03943 3.172922,-3.68097 2.133496,-5.90042 -1.042011,-2.21953 -3.680894,-3.17558 -5.900418,-2.13616 z m 186.849581,-75.42912 9.21925,-11.6784 -14.86705,-0.37513 z m -1.28954,-7.97144 -184.145489,86.41716 0.940402,2.00855 184.148147,-86.41723 -0.94306,-2.00848" />
    <path
       inkscape:connector-curvature="0"
       id="path21617"
       style="fill:#3ab856;fill-opacity:1;fill-rule:nonzero;stroke:none;stroke-width:0.26050466"
       d="m 249.56301,137.25646 6.56989,-13.35348 6.73146,13.27793 z m 11.45178,62.26579 c 0.0148,2.44873 -1.959,4.44946 -4.40774,4.46245 -2.44873,0.0148 -4.4468,-1.959 -4.45987,-4.41298 -0.0148,-2.44873 1.959,-4.44938 4.40774,-4.46504 2.44881,-0.007 4.44421,1.96166 4.45987,4.41557 z m -5.54353,0.0295 -0.3803,-64.54786 2.21687,-0.0148 0.38029,64.54779 -2.21686,0.0148" />
  </g>
</svg>
